%FSLAX35Y35*%
%MOIN*%
G04 EasyPC Gerber Version 18.0.8 Build 3632 *
%AMT21*0 Octagon Pad at angle 0*4,1,8,-0.01367,-0.03300,0.01367,-0.03300,0.03300,-0.01367,0.03300,0.01367,0.01367,0.03300,-0.01367,0.03300,-0.03300,0.01367,-0.03300,-0.01367,-0.01367,-0.03300,0*%
%ADD21T21*%
%ADD23O,0.05740X0.08610*%
%ADD20O,0.05746X0.07183*%
%ADD22O,0.06000X0.09000*%
%ADD79R,0.06000X0.06000*%
%ADD11C,0.00500*%
%ADD71C,0.03200*%
%ADD19C,0.05600*%
%ADD70C,0.06000*%
%ADD78C,0.06000*%
%ADD77C,0.07000*%
%ADD81C,0.07400*%
%ADD80O,0.09000X0.06000*%
X0Y0D02*
D02*
D11*
X561920Y250D02*
Y590250D01*
X250*
Y250*
X561920*
D02*
D19*
X14442Y501265D03*
Y511265D03*
Y521265D03*
Y531265D03*
Y541265D03*
Y551265D03*
X29442Y368387D03*
Y388387D03*
Y448765D03*
X39442D03*
X44442Y461265D03*
Y501265D03*
X54192Y406265D03*
Y416265D03*
X54442Y426265D03*
Y471265D03*
Y511265D03*
X59442Y368387D03*
Y388387D03*
X61942Y451265D03*
X64442Y461265D03*
Y471265D03*
Y481265D03*
X74442Y421265D03*
Y431265D03*
Y451265D03*
Y461265D03*
Y471265D03*
Y481265D03*
Y491265D03*
Y501265D03*
Y511265D03*
Y521265D03*
X84442Y411265D03*
Y421265D03*
Y431265D03*
X94442Y411265D03*
Y421265D03*
Y431265D03*
X104442Y411265D03*
Y421265D03*
Y431265D03*
Y451265D03*
Y461265D03*
Y471265D03*
Y481265D03*
Y491265D03*
Y501265D03*
Y511265D03*
Y521265D03*
X114442Y441265D03*
Y461265D03*
Y471265D03*
Y481265D03*
X124442Y441265D03*
Y471265D03*
Y511265D03*
X124507Y431347D03*
X134442Y461265D03*
Y501265D03*
X134491Y421206D03*
Y431206D03*
Y441206D03*
X144442Y461265D03*
Y501265D03*
X145349Y421206D03*
Y431206D03*
Y441206D03*
X154442Y471265D03*
Y511265D03*
X155315Y441265D03*
X155333Y431347D03*
X161442Y451265D03*
X164442Y461265D03*
Y471265D03*
Y481265D03*
X165315Y441265D03*
X174442Y421265D03*
Y431265D03*
Y451265D03*
Y461265D03*
Y471265D03*
Y481265D03*
Y491265D03*
Y501265D03*
Y511265D03*
Y521265D03*
X184442Y421265D03*
Y431265D03*
X194442Y421265D03*
Y431265D03*
X204442Y421265D03*
Y431265D03*
Y451265D03*
Y461265D03*
Y471265D03*
Y481265D03*
Y491265D03*
Y501265D03*
Y511265D03*
Y521265D03*
X209376Y366206D03*
X214442Y461265D03*
Y471265D03*
Y481265D03*
X216942Y441265D03*
X219360Y366206D03*
X224442Y471265D03*
Y511265D03*
X226942Y441265D03*
X229469Y366206D03*
X234442Y461265D03*
Y501265D03*
X236942Y441265D03*
X239454Y366330D03*
X249442Y421265D03*
Y431265D03*
Y451265D03*
Y461265D03*
Y471265D03*
Y481265D03*
Y491265D03*
Y501265D03*
Y511265D03*
Y521265D03*
X259442Y421265D03*
Y431265D03*
X269442Y421265D03*
Y431265D03*
X279442Y421265D03*
Y431265D03*
Y451265D03*
Y461265D03*
Y471265D03*
Y481265D03*
Y491265D03*
Y501265D03*
Y511265D03*
Y521265D03*
X288149Y231097D03*
Y241097D03*
Y251097D03*
X289405Y411387D03*
X289442Y446265D03*
Y456265D03*
Y466265D03*
Y476265D03*
Y486265D03*
X296089Y145437D03*
Y165437D03*
X299442Y411387D03*
Y436265D03*
Y446265D03*
Y456265D03*
Y466265D03*
Y476265D03*
Y486265D03*
X304373Y231097D03*
Y241097D03*
X304385Y251097D03*
X304442Y506265D03*
Y516265D03*
Y526265D03*
X309442Y411387D03*
Y436265D03*
Y446265D03*
Y456265D03*
Y466265D03*
Y476265D03*
Y486265D03*
X312127Y328437D03*
Y338437D03*
X314442Y506265D03*
Y516265D03*
Y526265D03*
X319442Y411387D03*
Y436265D03*
Y446265D03*
Y456265D03*
Y466265D03*
Y476265D03*
Y486265D03*
X322969Y318437D03*
X323156Y248437D03*
Y258437D03*
Y268437D03*
Y278437D03*
Y288437D03*
Y298437D03*
Y308437D03*
X324442Y506265D03*
Y516265D03*
Y526265D03*
X326089Y145437D03*
Y165437D03*
X326249Y178437D03*
Y188437D03*
Y198437D03*
Y225937D03*
X329442Y446265D03*
Y456265D03*
Y466265D03*
Y476265D03*
Y486265D03*
X331627Y232187D03*
X333078Y318437D03*
X333156Y248437D03*
Y258437D03*
Y268437D03*
Y278437D03*
Y288437D03*
Y298437D03*
Y308437D03*
X336198Y168446D03*
X336249Y178437D03*
Y188437D03*
Y198437D03*
Y225937D03*
X343156Y248437D03*
Y258437D03*
Y268437D03*
Y278437D03*
Y288437D03*
Y298437D03*
Y308437D03*
X343187Y318437D03*
X344442Y386265D03*
X346249Y178437D03*
Y188437D03*
Y198437D03*
Y225937D03*
X351627Y232187D03*
X353046Y318437D03*
X353156Y248437D03*
Y258437D03*
Y268437D03*
Y278437D03*
Y288437D03*
Y298437D03*
Y308437D03*
X356167Y168446D03*
X356249Y178437D03*
Y188437D03*
Y198437D03*
Y225937D03*
X363156Y248437D03*
Y258437D03*
Y268437D03*
Y278437D03*
Y288437D03*
Y298437D03*
Y308437D03*
Y318459D03*
X366249Y178437D03*
Y188437D03*
Y198437D03*
Y225937D03*
X369442Y426265D03*
Y436265D03*
Y446265D03*
Y456265D03*
Y466265D03*
Y476265D03*
Y486265D03*
Y496265D03*
Y506265D03*
Y516265D03*
Y526265D03*
Y536265D03*
Y546265D03*
Y556265D03*
Y566265D03*
Y576265D03*
X371627Y232187D03*
X373140Y318459D03*
X376249Y178437D03*
Y188437D03*
Y198437D03*
Y225937D03*
X376509Y168321D03*
X379442Y366265D03*
Y426265D03*
Y436265D03*
Y446265D03*
Y456265D03*
Y466265D03*
Y476265D03*
Y486265D03*
X382127Y238437D03*
Y278437D03*
X383124Y318459D03*
X386249Y178437D03*
Y188437D03*
Y198437D03*
Y225937D03*
X389442Y426265D03*
Y436265D03*
Y446265D03*
Y456265D03*
Y466265D03*
Y476265D03*
Y486265D03*
X391627Y232187D03*
X392127Y248437D03*
Y288437D03*
X392983Y318459D03*
X396249Y178437D03*
Y188437D03*
Y198437D03*
Y225937D03*
X396478Y168321D03*
X399442Y366265D03*
Y426265D03*
Y436265D03*
Y446265D03*
Y456265D03*
Y466265D03*
Y476265D03*
Y486265D03*
Y496265D03*
Y506265D03*
Y516265D03*
Y526265D03*
Y536265D03*
Y546265D03*
Y556265D03*
Y566265D03*
Y576265D03*
X402127Y238437D03*
Y248437D03*
Y258437D03*
X403093Y308437D03*
X403217Y228352D03*
Y318459D03*
X409442Y426265D03*
Y436265D03*
Y446265D03*
Y456265D03*
Y466265D03*
Y476265D03*
Y486265D03*
Y506265D03*
Y516265D03*
Y526265D03*
Y536265D03*
Y546265D03*
Y556265D03*
Y566265D03*
Y576265D03*
X412127Y178437D03*
Y198437D03*
Y208437D03*
Y228437D03*
Y238437D03*
Y248437D03*
Y258437D03*
Y268437D03*
Y278437D03*
Y288437D03*
Y298437D03*
X413326Y318459D03*
X413451Y308437D03*
X419442Y366265D03*
Y426265D03*
Y436265D03*
Y446265D03*
Y456265D03*
Y466265D03*
Y476265D03*
Y486265D03*
X422127Y198437D03*
Y208437D03*
X429127Y318437D03*
X429442Y426265D03*
Y436265D03*
X429526Y456265D03*
Y466265D03*
Y476265D03*
Y486265D03*
X432127Y198437D03*
Y208437D03*
X434442Y506265D03*
Y516265D03*
Y526265D03*
Y536265D03*
Y546265D03*
Y556265D03*
Y566265D03*
Y576265D03*
X439127Y318437D03*
X439442Y366265D03*
Y426265D03*
Y436265D03*
X439526Y456265D03*
Y466265D03*
Y476265D03*
Y486265D03*
X442127Y198437D03*
Y208437D03*
Y228437D03*
Y238437D03*
Y248437D03*
Y258437D03*
Y268437D03*
Y278437D03*
Y288437D03*
Y298437D03*
X444442Y506265D03*
Y516265D03*
Y526265D03*
Y536265D03*
Y546265D03*
Y556265D03*
Y566265D03*
Y576265D03*
X449127Y168437D03*
Y318437D03*
X449442Y381265D03*
Y391265D03*
Y401265D03*
X449526Y456265D03*
Y466265D03*
Y476265D03*
Y486265D03*
X452127Y238437D03*
Y248437D03*
Y258437D03*
X454442Y506265D03*
Y516265D03*
Y526265D03*
Y536265D03*
Y546265D03*
Y556265D03*
Y566265D03*
Y576265D03*
X458354Y188437D03*
Y198437D03*
Y208437D03*
X459127Y168437D03*
Y318437D03*
X459442Y391265D03*
Y407515D03*
Y417515D03*
Y427515D03*
X459526Y456265D03*
Y466265D03*
Y476265D03*
Y486265D03*
X462127Y248437D03*
Y288437D03*
X469127Y168437D03*
Y318437D03*
X472127Y238437D03*
Y278437D03*
X479127Y168437D03*
Y318437D03*
X482127Y228437D03*
X489127Y168437D03*
X492127Y198437D03*
Y208437D03*
Y228437D03*
Y238437D03*
Y248437D03*
Y258437D03*
Y268437D03*
Y278437D03*
Y288437D03*
Y298437D03*
Y308437D03*
X499127Y168437D03*
X502127Y198437D03*
Y208437D03*
Y308437D03*
X512127Y148437D03*
Y158437D03*
Y168437D03*
Y178437D03*
Y198437D03*
Y208437D03*
Y308437D03*
Y328437D03*
Y338437D03*
X522127Y148437D03*
Y158437D03*
Y168437D03*
Y178437D03*
Y198437D03*
Y208437D03*
Y228437D03*
Y238437D03*
Y248437D03*
Y258437D03*
Y268437D03*
Y278437D03*
Y288437D03*
Y298437D03*
Y308437D03*
Y328437D03*
Y338437D03*
X532127Y148437D03*
Y158437D03*
Y168437D03*
Y178437D03*
Y238437D03*
Y248437D03*
Y258437D03*
Y268437D03*
Y288437D03*
Y328437D03*
Y338437D03*
X542127Y158437D03*
Y168437D03*
Y178437D03*
Y228437D03*
Y238437D03*
Y248437D03*
Y258437D03*
Y268437D03*
Y278437D03*
Y308437D03*
Y318437D03*
Y328437D03*
D02*
D70*
X16850Y222263D03*
Y232263D03*
Y242263D03*
Y252263D03*
Y262263D03*
Y272263D03*
Y282263D03*
Y292263D03*
Y302263D03*
X18850Y145763D03*
Y165763D03*
X26850Y222263D03*
Y232263D03*
Y242263D03*
Y252263D03*
Y262263D03*
Y272263D03*
Y282263D03*
Y292263D03*
Y302263D03*
X36850Y222263D03*
Y232263D03*
Y242263D03*
Y252263D03*
Y262263D03*
Y272263D03*
Y282263D03*
Y292263D03*
Y302263D03*
X46850Y222263D03*
Y232263D03*
Y242263D03*
Y252263D03*
Y262263D03*
Y272263D03*
Y282263D03*
Y292263D03*
Y302263D03*
X48850Y145763D03*
Y165763D03*
X56850Y172263D03*
Y182263D03*
Y192263D03*
Y202263D03*
Y212263D03*
Y222263D03*
Y232263D03*
Y242263D03*
Y252263D03*
Y262263D03*
Y272263D03*
Y282263D03*
Y292263D03*
Y302263D03*
X63353Y546265D03*
X64704Y87363D03*
X66850Y172263D03*
Y182263D03*
Y192263D03*
Y202263D03*
Y212263D03*
Y222263D03*
Y232263D03*
Y242263D03*
Y252263D03*
Y262263D03*
Y272263D03*
Y282263D03*
Y292263D03*
Y302263D03*
X67418Y113696D03*
X67850Y317263D03*
X73462Y546265D03*
X76850Y172263D03*
Y182263D03*
Y192263D03*
Y202263D03*
Y212263D03*
Y222263D03*
Y232263D03*
Y242263D03*
Y252263D03*
Y262263D03*
Y272263D03*
Y282263D03*
Y292263D03*
Y302263D03*
X77418Y113696D03*
X77850Y317263D03*
X80429Y28206D03*
Y87363D03*
X83446Y546265D03*
X86850Y172263D03*
Y192263D03*
Y202263D03*
Y212263D03*
Y242263D03*
Y252263D03*
X87418Y113696D03*
X87850Y317263D03*
X88417Y28206D03*
Y87363D03*
X89442Y396265D03*
X93306Y546265D03*
X96279Y28206D03*
Y87363D03*
X96850Y172263D03*
Y182263D03*
Y192263D03*
Y202263D03*
Y212263D03*
Y242263D03*
Y252263D03*
Y262263D03*
Y272263D03*
Y282263D03*
Y292263D03*
X97418Y113696D03*
X97850Y317263D03*
X99442Y396265D03*
X103415Y546265D03*
X104267Y28206D03*
Y87363D03*
X106850Y172263D03*
Y192263D03*
Y202263D03*
Y212263D03*
Y242263D03*
Y252263D03*
Y262263D03*
Y272263D03*
Y282263D03*
Y292263D03*
X107418Y113696D03*
X107850Y317263D03*
X109442Y396265D03*
X112129Y28206D03*
Y87363D03*
X113399Y546265D03*
X116850Y172263D03*
Y182263D03*
Y192263D03*
Y202263D03*
Y212263D03*
Y242263D03*
Y252263D03*
X117418Y113696D03*
X117850Y317263D03*
X119442Y396265D03*
X123383Y546265D03*
X126850Y172263D03*
Y192263D03*
Y202263D03*
Y212263D03*
Y242263D03*
Y252263D03*
X133368Y546265D03*
X133850Y317263D03*
X136850Y172263D03*
Y182263D03*
Y192263D03*
Y202263D03*
Y212263D03*
Y242263D03*
Y252263D03*
X143850Y317263D03*
X146850Y192263D03*
Y202263D03*
Y212263D03*
Y242263D03*
Y252263D03*
X149442Y396265D03*
Y546265D03*
X153850Y317263D03*
X153865Y167513D03*
X156850Y182263D03*
Y192263D03*
Y202263D03*
Y212263D03*
Y242263D03*
Y252263D03*
X159442Y546265D03*
X163850Y317263D03*
X163865Y167513D03*
X166850Y302263D03*
X169442Y396265D03*
Y406265D03*
Y546265D03*
X173850Y317263D03*
X173865Y167513D03*
X176850Y182263D03*
Y302263D03*
X179442Y396265D03*
Y406265D03*
Y546265D03*
X183850Y317263D03*
X183865Y167513D03*
X186850Y192263D03*
Y202263D03*
Y222263D03*
Y232263D03*
Y242263D03*
Y252263D03*
Y262263D03*
Y272263D03*
Y282263D03*
Y292263D03*
X189442Y396265D03*
Y406265D03*
Y546265D03*
X193850Y317263D03*
X193865Y167513D03*
X196850Y192263D03*
Y202263D03*
Y302263D03*
X199442Y396265D03*
Y406265D03*
Y546265D03*
X203850Y317263D03*
X203865Y167513D03*
X206850Y192263D03*
Y202263D03*
Y302263D03*
X209442Y396265D03*
Y406265D03*
Y546265D03*
X216850Y167513D03*
Y192263D03*
Y202263D03*
Y222263D03*
Y232263D03*
Y242263D03*
Y252263D03*
Y262263D03*
Y272263D03*
Y282263D03*
Y292263D03*
Y302263D03*
Y327263D03*
Y337263D03*
X219442Y396265D03*
Y406265D03*
Y546265D03*
X226850Y147263D03*
Y157263D03*
Y167513D03*
Y232263D03*
Y282263D03*
Y302263D03*
Y327263D03*
Y337263D03*
X229442Y396265D03*
Y406265D03*
X236850Y147263D03*
Y157263D03*
Y167513D03*
Y242263D03*
Y252263D03*
Y262263D03*
Y327263D03*
Y337263D03*
X237905Y521265D03*
X239442Y396265D03*
Y406265D03*
Y546265D03*
X246850Y157263D03*
Y167513D03*
Y222263D03*
Y232263D03*
Y242263D03*
Y252263D03*
Y262263D03*
Y272263D03*
Y302263D03*
Y312263D03*
Y327263D03*
X249442Y546265D03*
X256006Y113513D03*
X259442Y396265D03*
Y406265D03*
Y546265D03*
X266006Y113513D03*
X269442Y396265D03*
Y406265D03*
Y546265D03*
X276006Y113513D03*
X279442Y396265D03*
Y406265D03*
Y546265D03*
X286006Y113513D03*
X289442Y396265D03*
Y546265D03*
X296006Y113513D03*
X299442Y396265D03*
Y546265D03*
X306006Y113513D03*
X309442Y396265D03*
Y546265D03*
X324442D03*
Y556265D03*
Y566265D03*
X369442Y376265D03*
Y386265D03*
Y396265D03*
X379442Y376265D03*
Y386265D03*
Y396265D03*
X389442Y376265D03*
Y386265D03*
Y396265D03*
X399442Y376265D03*
Y386265D03*
Y396265D03*
X409442Y376265D03*
Y386265D03*
Y396265D03*
X419442Y376265D03*
Y386265D03*
Y396265D03*
X429442Y376265D03*
Y386265D03*
Y396265D03*
X429526Y446265D03*
X439442Y376265D03*
Y386265D03*
Y396265D03*
X439526Y446265D03*
X443628Y85116D03*
X447300Y113571D03*
X449526Y446265D03*
X457300Y113571D03*
X459353Y25959D03*
Y85116D03*
X459526Y446265D03*
X467300Y113571D03*
X467341Y25959D03*
Y85116D03*
X475203Y25959D03*
Y85116D03*
X477300Y113571D03*
X483191Y25959D03*
Y85116D03*
X487300Y113571D03*
X491053Y25959D03*
Y85116D03*
X497300Y113571D03*
D02*
D71*
X110692Y426265D03*
X284383Y528325D03*
Y536437D03*
X294405Y536387D03*
X294467Y528387D03*
X424658Y401265D03*
D02*
D20*
X43442Y556265D03*
Y566265D03*
X53442Y556265D03*
Y566265D03*
X63442Y556265D03*
Y566265D03*
X73442Y556265D03*
Y566265D03*
X79442Y376265D03*
Y386265D03*
X83442Y556265D03*
Y566265D03*
X89442Y376265D03*
Y386265D03*
X93442Y556265D03*
Y566265D03*
X99442Y376265D03*
Y386265D03*
X103442Y556265D03*
Y566265D03*
X109442Y376265D03*
Y386265D03*
X113442Y556265D03*
Y566265D03*
X119442Y376265D03*
Y386265D03*
X123442Y556265D03*
Y566265D03*
X129442Y376265D03*
Y386265D03*
X133442Y556265D03*
Y566265D03*
X139442Y376265D03*
Y386265D03*
X149442Y376265D03*
Y386265D03*
Y556265D03*
Y566265D03*
X159442Y556265D03*
Y566265D03*
X169442Y376265D03*
Y386265D03*
Y556265D03*
Y566265D03*
X179442Y376265D03*
Y386265D03*
Y556265D03*
Y566265D03*
X189442Y376265D03*
Y386265D03*
Y556265D03*
Y566265D03*
X199442Y376265D03*
Y386265D03*
Y556265D03*
Y566265D03*
X209442Y376265D03*
Y386265D03*
Y556265D03*
Y566265D03*
X219442Y376265D03*
Y386265D03*
Y556265D03*
Y566265D03*
X229442Y376265D03*
Y386265D03*
X239442Y376265D03*
Y386265D03*
Y556265D03*
Y566265D03*
X249442Y556265D03*
Y566265D03*
X259442Y376265D03*
Y386265D03*
Y556265D03*
Y566265D03*
X269442Y376265D03*
Y386265D03*
Y556265D03*
Y566265D03*
X279442Y376265D03*
Y386265D03*
Y556265D03*
Y566265D03*
X289442Y376265D03*
Y386265D03*
Y556265D03*
Y566265D03*
X299442Y376265D03*
Y386265D03*
Y556265D03*
Y566265D03*
X309442Y376265D03*
Y386265D03*
Y556265D03*
Y566265D03*
X319442Y376265D03*
Y386265D03*
X329442Y376265D03*
Y386265D03*
D02*
D21*
X339442Y396265D03*
Y406265D03*
Y416265D03*
Y426265D03*
Y436265D03*
Y446265D03*
Y456265D03*
Y466265D03*
Y476265D03*
Y486265D03*
Y496265D03*
Y506265D03*
Y516265D03*
Y526265D03*
Y536265D03*
Y546265D03*
Y556265D03*
Y566265D03*
X349442Y396265D03*
Y406265D03*
Y416265D03*
Y426265D03*
Y436265D03*
Y446265D03*
Y456265D03*
Y466265D03*
Y476265D03*
Y486265D03*
Y496265D03*
Y506265D03*
Y516265D03*
Y526265D03*
Y536265D03*
Y546265D03*
Y556265D03*
Y566265D03*
D02*
D22*
X153850Y147263D03*
Y157263D03*
X163850Y147263D03*
Y157263D03*
X173850Y147263D03*
Y157263D03*
X183850Y147263D03*
Y157263D03*
X193850Y147263D03*
Y157263D03*
X203850Y147263D03*
Y157263D03*
X449127Y148437D03*
Y158437D03*
X459127Y148437D03*
Y158437D03*
X469127Y148437D03*
Y158437D03*
X479127Y148437D03*
Y158437D03*
X489127Y148437D03*
Y158437D03*
X499127Y148437D03*
Y158437D03*
D02*
D23*
X27850Y327263D03*
Y337263D03*
X37850Y327263D03*
Y337263D03*
X47850Y327263D03*
Y337263D03*
X57850Y327263D03*
Y337263D03*
X63850Y147263D03*
Y157263D03*
X67850Y327263D03*
Y337263D03*
X73850Y147263D03*
Y157263D03*
X77850Y327263D03*
Y337263D03*
X83850Y147263D03*
Y157263D03*
X87850Y327263D03*
Y337263D03*
X93850Y147263D03*
Y157263D03*
X97850Y327263D03*
Y337263D03*
X103850Y147263D03*
Y157263D03*
X107850Y327263D03*
Y337263D03*
X113850Y147263D03*
Y157263D03*
X117850Y327263D03*
Y337263D03*
X123850Y147263D03*
Y157263D03*
X133850Y147263D03*
Y157263D03*
Y327263D03*
Y337263D03*
X143850Y327263D03*
Y337263D03*
X153850Y327263D03*
Y337263D03*
X163850Y327263D03*
Y337263D03*
X173850Y327263D03*
Y337263D03*
X183850Y327263D03*
Y337263D03*
X193850Y327263D03*
Y337263D03*
X203850Y327263D03*
Y337263D03*
X323127Y328437D03*
Y338437D03*
X333127Y328437D03*
Y338437D03*
X343127Y328437D03*
Y338437D03*
X353127Y328437D03*
Y338437D03*
X359127Y148437D03*
Y158437D03*
X363127Y328437D03*
Y338437D03*
X369127Y148437D03*
Y158437D03*
X373127Y328437D03*
Y338437D03*
X379127Y148437D03*
Y158437D03*
X383127Y328437D03*
Y338437D03*
X389127Y148437D03*
Y158437D03*
X393127Y328437D03*
Y338437D03*
X399127Y148437D03*
Y158437D03*
X403127Y328437D03*
Y338437D03*
X409127Y148437D03*
Y158437D03*
X413127Y328437D03*
Y338437D03*
X419127Y148437D03*
Y158437D03*
X429127Y148437D03*
Y158437D03*
Y328437D03*
Y338437D03*
X439127Y328437D03*
Y338437D03*
X449127Y328437D03*
Y338437D03*
X459127Y328437D03*
Y338437D03*
X469127Y328437D03*
Y338437D03*
X479127Y328437D03*
Y338437D03*
X489127Y328437D03*
Y338437D03*
X499127Y328437D03*
Y338437D03*
D02*
D77*
X16850Y202263D03*
X19442Y426265D03*
X26850Y182263D03*
X29442Y405387D03*
X36850Y202263D03*
X39442Y426265D03*
X294127Y198437D03*
X304127Y178437D03*
X314127Y198437D03*
D02*
D78*
X253656Y85783D03*
X269404D03*
X277278Y26728D03*
Y85783D03*
X285152Y26728D03*
Y85783D03*
X293026Y26728D03*
Y85783D03*
X300900Y26728D03*
Y85783D03*
D02*
D79*
X269404Y26728D03*
D02*
D80*
X32406Y27773D03*
Y37773D03*
Y47773D03*
Y57773D03*
Y67773D03*
Y77773D03*
X221006Y26419D03*
Y36419D03*
Y46419D03*
Y56419D03*
Y66419D03*
Y76419D03*
D02*
D81*
X152466Y37733D03*
Y47733D03*
Y57733D03*
Y67733D03*
Y77733D03*
X341067Y36380D03*
Y46380D03*
Y56380D03*
Y66380D03*
Y76380D03*
X0Y0D02*
M02*
