%FSLAX35Y35*%
%MOIN*%
G04 EasyPC Gerber Version 18.0.8 Build 3632 *
%AMT21*0 Octagon Pad at angle 0*4,1,8,-0.01367,-0.03300,0.01367,-0.03300,0.03300,-0.01367,0.03300,0.01367,0.01367,0.03300,-0.01367,0.03300,-0.03300,0.01367,-0.03300,-0.01367,-0.01367,-0.03300,0*%
%ADD21T21*%
%ADD23O,0.05740X0.08610*%
%ADD20O,0.05746X0.07183*%
%ADD22O,0.06000X0.09000*%
%ADD79R,0.06000X0.06000*%
%ADD11C,0.00500*%
%ADD16C,0.00800*%
%ADD12C,0.01000*%
%ADD24C,0.01500*%
%ADD82C,0.01600*%
%ADD71C,0.03200*%
%ADD74C,0.04000*%
%ADD19C,0.05600*%
%ADD70C,0.06000*%
%ADD78C,0.06000*%
%ADD77C,0.07000*%
%ADD81C,0.07400*%
%ADD80O,0.09000X0.06000*%
X0Y0D02*
D02*
D11*
X561920Y250D02*
Y590250D01*
X250*
Y250*
X561920*
D02*
D12*
X27850Y337263D02*
Y327263D01*
X37850Y337263D02*
Y327263D01*
X47850Y337263D02*
Y327263D01*
X48850Y145763D02*
X55350D01*
Y163763*
X83850*
Y157263*
X57850Y302263D02*
X56850D01*
X57850Y337263D02*
Y327263D01*
X67850Y337263D02*
Y327263D01*
X77850Y337263D02*
Y327263D01*
X87850Y337263D02*
Y327263D01*
X97850Y337263D02*
Y327263D01*
X104442Y451265D02*
X109442D01*
Y506265*
X89442*
Y521265*
X74442*
X107850Y337263D02*
Y327263D01*
X113850Y157263D02*
Y147263D01*
X117850Y337263D02*
Y327263D01*
X133850Y337263D02*
Y327263D01*
X143850Y337263D02*
Y327263D01*
X153850Y337263D02*
Y327263D01*
X163850Y337263D02*
Y327263D01*
X173850Y337263D02*
Y327263D01*
X183850Y337263D02*
Y327263D01*
X186850Y292263D02*
X201850D01*
Y287263*
X221850*
Y222263*
X216850*
X186850Y292263D02*
Y302263D01*
X193850Y337263D02*
Y327263D01*
X203850Y317263D02*
X246850D01*
Y312263*
X203850Y337263D02*
Y327263D01*
X204442Y451265D02*
X209442D01*
Y506265*
X190442*
Y521265*
X174442*
X236850Y167513D02*
Y157263D01*
X289405Y411387D02*
Y419496D01*
X284233*
Y523457*
X284258*
Y528325*
X284383*
X294467Y528387D02*
Y411387D01*
X309442Y446265D02*
Y441265D01*
X339442*
Y446265*
X309442Y456265D02*
Y451265D01*
X339442*
Y456265*
X309442Y466265D02*
Y461265D01*
X339442*
Y466265*
X309442Y476265D02*
Y471265D01*
X339442*
Y476265*
X309442Y486265D02*
Y481265D01*
X339442*
Y486265*
X366249Y198437D02*
Y188437D01*
X376249Y198437D02*
Y188437D01*
X379127Y158437D02*
Y148437D01*
X386249Y198437D02*
Y188437D01*
X396249Y198437D02*
Y188437D01*
X442127Y228437D02*
X447127D01*
Y283437*
X427127*
Y298437*
X412127*
X492127D02*
X507127D01*
Y283937*
X527127*
Y228437*
X522127*
X492127Y298437D02*
Y308437D01*
X542127Y228437D02*
X536627D01*
Y248437*
X532127*
D02*
D16*
X114850Y152263D02*
X113850D01*
X186850Y302263D02*
X196850D01*
X199442Y556665D02*
Y556265D01*
Y566665D02*
Y566265D01*
X216850Y302263D02*
X226850D01*
D02*
D19*
X14442Y501265D03*
Y511265D03*
Y521265D03*
Y531265D03*
Y541265D03*
Y551265D03*
X29442Y368387D03*
Y388387D03*
Y448765D03*
X39442D03*
X44442Y461265D03*
Y501265D03*
X54192Y406265D03*
Y416265D03*
X54442Y426265D03*
Y471265D03*
Y511265D03*
X59442Y368387D03*
Y388387D03*
X61942Y451265D03*
X64442Y461265D03*
Y471265D03*
Y481265D03*
X74442Y421265D03*
Y431265D03*
Y451265D03*
Y461265D03*
Y471265D03*
Y481265D03*
Y491265D03*
Y501265D03*
Y511265D03*
Y521265D03*
X84442Y411265D03*
Y421265D03*
Y431265D03*
X94442Y411265D03*
Y421265D03*
Y431265D03*
X104442Y411265D03*
Y421265D03*
Y431265D03*
Y451265D03*
Y461265D03*
Y471265D03*
Y481265D03*
Y491265D03*
Y501265D03*
Y511265D03*
Y521265D03*
X114442Y441265D03*
Y461265D03*
Y471265D03*
Y481265D03*
X124442Y441265D03*
Y471265D03*
Y511265D03*
X124507Y431347D03*
X134442Y461265D03*
Y501265D03*
X134491Y421206D03*
Y431206D03*
Y441206D03*
X144442Y461265D03*
Y501265D03*
X145349Y421206D03*
Y431206D03*
Y441206D03*
X154442Y471265D03*
Y511265D03*
X155315Y441265D03*
X155333Y431347D03*
X161442Y451265D03*
X164442Y461265D03*
Y471265D03*
Y481265D03*
X165315Y441265D03*
X174442Y421265D03*
Y431265D03*
Y451265D03*
Y461265D03*
Y471265D03*
Y481265D03*
Y491265D03*
Y501265D03*
Y511265D03*
Y521265D03*
X184442Y421265D03*
Y431265D03*
X194442Y421265D03*
Y431265D03*
X204442Y421265D03*
Y431265D03*
Y451265D03*
Y461265D03*
Y471265D03*
Y481265D03*
Y491265D03*
Y501265D03*
Y511265D03*
Y521265D03*
X209376Y366206D03*
X214442Y461265D03*
Y471265D03*
Y481265D03*
X216942Y441265D03*
X219360Y366206D03*
X224442Y471265D03*
Y511265D03*
X226942Y441265D03*
X229469Y366206D03*
X234442Y461265D03*
Y501265D03*
X236942Y441265D03*
X239454Y366330D03*
X249442Y421265D03*
Y431265D03*
Y451265D03*
Y461265D03*
Y471265D03*
Y481265D03*
Y491265D03*
Y501265D03*
Y511265D03*
Y521265D03*
X259442Y421265D03*
Y431265D03*
X269442Y421265D03*
Y431265D03*
X279442Y421265D03*
Y431265D03*
Y451265D03*
Y461265D03*
Y471265D03*
Y481265D03*
Y491265D03*
Y501265D03*
Y511265D03*
Y521265D03*
X288149Y231097D03*
Y241097D03*
Y251097D03*
X289405Y411387D03*
X289442Y446265D03*
Y456265D03*
Y466265D03*
Y476265D03*
Y486265D03*
X296089Y145437D03*
Y165437D03*
X299442Y411387D03*
Y436265D03*
Y446265D03*
Y456265D03*
Y466265D03*
Y476265D03*
Y486265D03*
X304373Y231097D03*
Y241097D03*
X304385Y251097D03*
X304442Y506265D03*
Y516265D03*
Y526265D03*
X309442Y411387D03*
Y436265D03*
Y446265D03*
Y456265D03*
Y466265D03*
Y476265D03*
Y486265D03*
X312127Y328437D03*
Y338437D03*
X314442Y506265D03*
Y516265D03*
Y526265D03*
X319442Y411387D03*
Y436265D03*
Y446265D03*
Y456265D03*
Y466265D03*
Y476265D03*
Y486265D03*
X322969Y318437D03*
X323156Y248437D03*
Y258437D03*
Y268437D03*
Y278437D03*
Y288437D03*
Y298437D03*
Y308437D03*
X324442Y506265D03*
Y516265D03*
Y526265D03*
X326089Y145437D03*
Y165437D03*
X326249Y178437D03*
Y188437D03*
Y198437D03*
Y225937D03*
X329442Y446265D03*
Y456265D03*
Y466265D03*
Y476265D03*
Y486265D03*
X331627Y232187D03*
X333078Y318437D03*
X333156Y248437D03*
Y258437D03*
Y268437D03*
Y278437D03*
Y288437D03*
Y298437D03*
Y308437D03*
X336198Y168446D03*
X336249Y178437D03*
Y188437D03*
Y198437D03*
Y225937D03*
X343156Y248437D03*
Y258437D03*
Y268437D03*
Y278437D03*
Y288437D03*
Y298437D03*
Y308437D03*
X343187Y318437D03*
X344442Y386265D03*
X346249Y178437D03*
Y188437D03*
Y198437D03*
Y225937D03*
X351627Y232187D03*
X353046Y318437D03*
X353156Y248437D03*
Y258437D03*
Y268437D03*
Y278437D03*
Y288437D03*
Y298437D03*
Y308437D03*
X356167Y168446D03*
X356249Y178437D03*
Y188437D03*
Y198437D03*
Y225937D03*
X363156Y248437D03*
Y258437D03*
Y268437D03*
Y278437D03*
Y288437D03*
Y298437D03*
Y308437D03*
Y318459D03*
X366249Y178437D03*
Y188437D03*
Y198437D03*
Y225937D03*
X369442Y426265D03*
Y436265D03*
Y446265D03*
Y456265D03*
Y466265D03*
Y476265D03*
Y486265D03*
Y496265D03*
Y506265D03*
Y516265D03*
Y526265D03*
Y536265D03*
Y546265D03*
Y556265D03*
Y566265D03*
Y576265D03*
X371627Y232187D03*
X373140Y318459D03*
X376249Y178437D03*
Y188437D03*
Y198437D03*
Y225937D03*
X376509Y168321D03*
X379442Y366265D03*
Y426265D03*
Y436265D03*
Y446265D03*
Y456265D03*
Y466265D03*
Y476265D03*
Y486265D03*
X382127Y238437D03*
Y278437D03*
X383124Y318459D03*
X386249Y178437D03*
Y188437D03*
Y198437D03*
Y225937D03*
X389442Y426265D03*
Y436265D03*
Y446265D03*
Y456265D03*
Y466265D03*
Y476265D03*
Y486265D03*
X391627Y232187D03*
X392127Y248437D03*
Y288437D03*
X392983Y318459D03*
X396249Y178437D03*
Y188437D03*
Y198437D03*
Y225937D03*
X396478Y168321D03*
X399442Y366265D03*
Y426265D03*
Y436265D03*
Y446265D03*
Y456265D03*
Y466265D03*
Y476265D03*
Y486265D03*
Y496265D03*
Y506265D03*
Y516265D03*
Y526265D03*
Y536265D03*
Y546265D03*
Y556265D03*
Y566265D03*
Y576265D03*
X402127Y238437D03*
Y248437D03*
Y258437D03*
X403093Y308437D03*
X403217Y228352D03*
Y318459D03*
X409442Y426265D03*
Y436265D03*
Y446265D03*
Y456265D03*
Y466265D03*
Y476265D03*
Y486265D03*
Y506265D03*
Y516265D03*
Y526265D03*
Y536265D03*
Y546265D03*
Y556265D03*
Y566265D03*
Y576265D03*
X412127Y178437D03*
Y198437D03*
Y208437D03*
Y228437D03*
Y238437D03*
Y248437D03*
Y258437D03*
Y268437D03*
Y278437D03*
Y288437D03*
Y298437D03*
X413326Y318459D03*
X413451Y308437D03*
X419442Y366265D03*
Y426265D03*
Y436265D03*
Y446265D03*
Y456265D03*
Y466265D03*
Y476265D03*
Y486265D03*
X422127Y198437D03*
Y208437D03*
X429127Y318437D03*
X429442Y426265D03*
Y436265D03*
X429526Y456265D03*
Y466265D03*
Y476265D03*
Y486265D03*
X432127Y198437D03*
Y208437D03*
X434442Y506265D03*
Y516265D03*
Y526265D03*
Y536265D03*
Y546265D03*
Y556265D03*
Y566265D03*
Y576265D03*
X439127Y318437D03*
X439442Y366265D03*
Y426265D03*
Y436265D03*
X439526Y456265D03*
Y466265D03*
Y476265D03*
Y486265D03*
X442127Y198437D03*
Y208437D03*
Y228437D03*
Y238437D03*
Y248437D03*
Y258437D03*
Y268437D03*
Y278437D03*
Y288437D03*
Y298437D03*
X444442Y506265D03*
Y516265D03*
Y526265D03*
Y536265D03*
Y546265D03*
Y556265D03*
Y566265D03*
Y576265D03*
X449127Y168437D03*
Y318437D03*
X449442Y381265D03*
Y391265D03*
Y401265D03*
X449526Y456265D03*
Y466265D03*
Y476265D03*
Y486265D03*
X452127Y238437D03*
Y248437D03*
Y258437D03*
X454442Y506265D03*
Y516265D03*
Y526265D03*
Y536265D03*
Y546265D03*
Y556265D03*
Y566265D03*
Y576265D03*
X458354Y188437D03*
Y198437D03*
Y208437D03*
X459127Y168437D03*
Y318437D03*
X459442Y391265D03*
Y407515D03*
Y417515D03*
Y427515D03*
X459526Y456265D03*
Y466265D03*
Y476265D03*
Y486265D03*
X462127Y248437D03*
Y288437D03*
X469127Y168437D03*
Y318437D03*
X472127Y238437D03*
Y278437D03*
X479127Y168437D03*
Y318437D03*
X482127Y228437D03*
X489127Y168437D03*
X492127Y198437D03*
Y208437D03*
Y228437D03*
Y238437D03*
Y248437D03*
Y258437D03*
Y268437D03*
Y278437D03*
Y288437D03*
Y298437D03*
Y308437D03*
X499127Y168437D03*
X502127Y198437D03*
Y208437D03*
Y308437D03*
X512127Y148437D03*
Y158437D03*
Y168437D03*
Y178437D03*
Y198437D03*
Y208437D03*
Y308437D03*
Y328437D03*
Y338437D03*
X522127Y148437D03*
Y158437D03*
Y168437D03*
Y178437D03*
Y198437D03*
Y208437D03*
Y228437D03*
Y238437D03*
Y248437D03*
Y258437D03*
Y268437D03*
Y278437D03*
Y288437D03*
Y298437D03*
Y308437D03*
Y328437D03*
Y338437D03*
X532127Y148437D03*
Y158437D03*
Y168437D03*
Y178437D03*
Y238437D03*
Y248437D03*
Y258437D03*
Y268437D03*
Y288437D03*
Y328437D03*
Y338437D03*
X542127Y158437D03*
Y168437D03*
Y178437D03*
Y228437D03*
Y238437D03*
Y248437D03*
Y258437D03*
Y268437D03*
Y278437D03*
Y308437D03*
Y318437D03*
Y328437D03*
D02*
D70*
X16850Y222263D03*
Y232263D03*
Y242263D03*
Y252263D03*
Y262263D03*
Y272263D03*
Y282263D03*
Y292263D03*
Y302263D03*
X18850Y145763D03*
Y165763D03*
X26850Y222263D03*
Y232263D03*
Y242263D03*
Y252263D03*
Y262263D03*
Y272263D03*
Y282263D03*
Y292263D03*
Y302263D03*
X36850Y222263D03*
Y232263D03*
Y242263D03*
Y252263D03*
Y262263D03*
Y272263D03*
Y282263D03*
Y292263D03*
Y302263D03*
X46850Y222263D03*
Y232263D03*
Y242263D03*
Y252263D03*
Y262263D03*
Y272263D03*
Y282263D03*
Y292263D03*
Y302263D03*
X48850Y145763D03*
Y165763D03*
X56850Y172263D03*
Y182263D03*
Y192263D03*
Y202263D03*
Y212263D03*
Y222263D03*
Y232263D03*
Y242263D03*
Y252263D03*
Y262263D03*
Y272263D03*
Y282263D03*
Y292263D03*
Y302263D03*
X63353Y546265D03*
X64704Y87363D03*
X66850Y172263D03*
Y182263D03*
Y192263D03*
Y202263D03*
Y212263D03*
Y222263D03*
Y232263D03*
Y242263D03*
Y252263D03*
Y262263D03*
Y272263D03*
Y282263D03*
Y292263D03*
Y302263D03*
X67418Y113696D03*
X67850Y317263D03*
X73462Y546265D03*
X76850Y172263D03*
Y182263D03*
Y192263D03*
Y202263D03*
Y212263D03*
Y222263D03*
Y232263D03*
Y242263D03*
Y252263D03*
Y262263D03*
Y272263D03*
Y282263D03*
Y292263D03*
Y302263D03*
X77418Y113696D03*
X77850Y317263D03*
X80429Y28206D03*
Y87363D03*
X83446Y546265D03*
X86850Y172263D03*
Y192263D03*
Y202263D03*
Y212263D03*
Y242263D03*
Y252263D03*
X87418Y113696D03*
X87850Y317263D03*
X88417Y28206D03*
Y87363D03*
X89442Y396265D03*
X93306Y546265D03*
X96279Y28206D03*
Y87363D03*
X96850Y172263D03*
Y182263D03*
Y192263D03*
Y202263D03*
Y212263D03*
Y242263D03*
Y252263D03*
Y262263D03*
Y272263D03*
Y282263D03*
Y292263D03*
X97418Y113696D03*
X97850Y317263D03*
X99442Y396265D03*
X103415Y546265D03*
X104267Y28206D03*
Y87363D03*
X106850Y172263D03*
Y192263D03*
Y202263D03*
Y212263D03*
Y242263D03*
Y252263D03*
Y262263D03*
Y272263D03*
Y282263D03*
Y292263D03*
X107418Y113696D03*
X107850Y317263D03*
X109442Y396265D03*
X112129Y28206D03*
Y87363D03*
X113399Y546265D03*
X116850Y172263D03*
Y182263D03*
Y192263D03*
Y202263D03*
Y212263D03*
Y242263D03*
Y252263D03*
X117418Y113696D03*
X117850Y317263D03*
X119442Y396265D03*
X123383Y546265D03*
X126850Y172263D03*
Y192263D03*
Y202263D03*
Y212263D03*
Y242263D03*
Y252263D03*
X133368Y546265D03*
X133850Y317263D03*
X136850Y172263D03*
Y182263D03*
Y192263D03*
Y202263D03*
Y212263D03*
Y242263D03*
Y252263D03*
X143850Y317263D03*
X146850Y192263D03*
Y202263D03*
Y212263D03*
Y242263D03*
Y252263D03*
X149442Y396265D03*
Y546265D03*
X153850Y317263D03*
X153865Y167513D03*
X156850Y182263D03*
Y192263D03*
Y202263D03*
Y212263D03*
Y242263D03*
Y252263D03*
X159442Y546265D03*
X163850Y317263D03*
X163865Y167513D03*
X166850Y302263D03*
X169442Y396265D03*
Y406265D03*
Y546265D03*
X173850Y317263D03*
X173865Y167513D03*
X176850Y182263D03*
Y302263D03*
X179442Y396265D03*
Y406265D03*
Y546265D03*
X183850Y317263D03*
X183865Y167513D03*
X186850Y192263D03*
Y202263D03*
Y222263D03*
Y232263D03*
Y242263D03*
Y252263D03*
Y262263D03*
Y272263D03*
Y282263D03*
Y292263D03*
X189442Y396265D03*
Y406265D03*
Y546265D03*
X193850Y317263D03*
X193865Y167513D03*
X196850Y192263D03*
Y202263D03*
Y302263D03*
X199442Y396265D03*
Y406265D03*
Y546265D03*
X203850Y317263D03*
X203865Y167513D03*
X206850Y192263D03*
Y202263D03*
Y302263D03*
X209442Y396265D03*
Y406265D03*
Y546265D03*
X216850Y167513D03*
Y192263D03*
Y202263D03*
Y222263D03*
Y232263D03*
Y242263D03*
Y252263D03*
Y262263D03*
Y272263D03*
Y282263D03*
Y292263D03*
Y302263D03*
Y327263D03*
Y337263D03*
X219442Y396265D03*
Y406265D03*
Y546265D03*
X226850Y147263D03*
Y157263D03*
Y167513D03*
Y232263D03*
Y282263D03*
Y302263D03*
Y327263D03*
Y337263D03*
X229442Y396265D03*
Y406265D03*
X236850Y147263D03*
Y157263D03*
Y167513D03*
Y242263D03*
Y252263D03*
Y262263D03*
Y327263D03*
Y337263D03*
X237905Y521265D03*
X239442Y396265D03*
Y406265D03*
Y546265D03*
X246850Y157263D03*
Y167513D03*
Y222263D03*
Y232263D03*
Y242263D03*
Y252263D03*
Y262263D03*
Y272263D03*
Y302263D03*
Y312263D03*
Y327263D03*
X249442Y546265D03*
X256006Y113513D03*
X259442Y396265D03*
Y406265D03*
Y546265D03*
X266006Y113513D03*
X269442Y396265D03*
Y406265D03*
Y546265D03*
X276006Y113513D03*
X279442Y396265D03*
Y406265D03*
Y546265D03*
X286006Y113513D03*
X289442Y396265D03*
Y546265D03*
X296006Y113513D03*
X299442Y396265D03*
Y546265D03*
X306006Y113513D03*
X309442Y396265D03*
Y546265D03*
X324442D03*
Y556265D03*
Y566265D03*
X369442Y376265D03*
Y386265D03*
Y396265D03*
X379442Y376265D03*
Y386265D03*
Y396265D03*
X389442Y376265D03*
Y386265D03*
Y396265D03*
X399442Y376265D03*
Y386265D03*
Y396265D03*
X409442Y376265D03*
Y386265D03*
Y396265D03*
X419442Y376265D03*
Y386265D03*
Y396265D03*
X429442Y376265D03*
Y386265D03*
Y396265D03*
X429526Y446265D03*
X439442Y376265D03*
Y386265D03*
Y396265D03*
X439526Y446265D03*
X443628Y85116D03*
X447300Y113571D03*
X449526Y446265D03*
X457300Y113571D03*
X459353Y25959D03*
Y85116D03*
X459526Y446265D03*
X467300Y113571D03*
X467341Y25959D03*
Y85116D03*
X475203Y25959D03*
Y85116D03*
X477300Y113571D03*
X483191Y25959D03*
Y85116D03*
X487300Y113571D03*
X491053Y25959D03*
Y85116D03*
X497300Y113571D03*
D02*
D71*
X110692Y426265D03*
X284383Y528325D03*
Y536437D03*
X294405Y536387D03*
X294467Y528387D03*
X424658Y401265D03*
D02*
D20*
X43442Y556265D03*
Y566265D03*
X53442Y556265D03*
Y566265D03*
X63442Y556265D03*
Y566265D03*
X73442Y556265D03*
Y566265D03*
X79442Y376265D03*
Y386265D03*
X83442Y556265D03*
Y566265D03*
X89442Y376265D03*
Y386265D03*
X93442Y556265D03*
Y566265D03*
X99442Y376265D03*
Y386265D03*
X103442Y556265D03*
Y566265D03*
X109442Y376265D03*
Y386265D03*
X113442Y556265D03*
Y566265D03*
X119442Y376265D03*
Y386265D03*
X123442Y556265D03*
Y566265D03*
X129442Y376265D03*
Y386265D03*
X133442Y556265D03*
Y566265D03*
X139442Y376265D03*
Y386265D03*
X149442Y376265D03*
Y386265D03*
Y556265D03*
Y566265D03*
X159442Y556265D03*
Y566265D03*
X169442Y376265D03*
Y386265D03*
Y556265D03*
Y566265D03*
X179442Y376265D03*
Y386265D03*
Y556265D03*
Y566265D03*
X189442Y376265D03*
Y386265D03*
Y556265D03*
Y566265D03*
X199442Y376265D03*
Y386265D03*
Y556265D03*
Y566265D03*
X209442Y376265D03*
Y386265D03*
Y556265D03*
Y566265D03*
X219442Y376265D03*
Y386265D03*
Y556265D03*
Y566265D03*
X229442Y376265D03*
Y386265D03*
X239442Y376265D03*
Y386265D03*
Y556265D03*
Y566265D03*
X249442Y556265D03*
Y566265D03*
X259442Y376265D03*
Y386265D03*
Y556265D03*
Y566265D03*
X269442Y376265D03*
Y386265D03*
Y556265D03*
Y566265D03*
X279442Y376265D03*
Y386265D03*
Y556265D03*
Y566265D03*
X289442Y376265D03*
Y386265D03*
Y556265D03*
Y566265D03*
X299442Y376265D03*
Y386265D03*
Y556265D03*
Y566265D03*
X309442Y376265D03*
Y386265D03*
Y556265D03*
Y566265D03*
X319442Y376265D03*
Y386265D03*
X329442Y376265D03*
Y386265D03*
D02*
D21*
X339442Y396265D03*
Y406265D03*
Y416265D03*
Y426265D03*
Y436265D03*
Y446265D03*
Y456265D03*
Y466265D03*
Y476265D03*
Y486265D03*
Y496265D03*
Y506265D03*
Y516265D03*
Y526265D03*
Y536265D03*
Y546265D03*
Y556265D03*
Y566265D03*
X349442Y396265D03*
Y406265D03*
Y416265D03*
Y426265D03*
Y436265D03*
Y446265D03*
Y456265D03*
Y466265D03*
Y476265D03*
Y486265D03*
Y496265D03*
Y506265D03*
Y516265D03*
Y526265D03*
Y536265D03*
Y546265D03*
Y556265D03*
Y566265D03*
D02*
D22*
X153850Y147263D03*
Y157263D03*
X163850Y147263D03*
Y157263D03*
X173850Y147263D03*
Y157263D03*
X183850Y147263D03*
Y157263D03*
X193850Y147263D03*
Y157263D03*
X203850Y147263D03*
Y157263D03*
X449127Y148437D03*
Y158437D03*
X459127Y148437D03*
Y158437D03*
X469127Y148437D03*
Y158437D03*
X479127Y148437D03*
Y158437D03*
X489127Y148437D03*
Y158437D03*
X499127Y148437D03*
Y158437D03*
D02*
D23*
X27850Y327263D03*
Y337263D03*
X37850Y327263D03*
Y337263D03*
X47850Y327263D03*
Y337263D03*
X57850Y327263D03*
Y337263D03*
X63850Y147263D03*
Y157263D03*
X67850Y327263D03*
Y337263D03*
X73850Y147263D03*
Y157263D03*
X77850Y327263D03*
Y337263D03*
X83850Y147263D03*
Y157263D03*
X87850Y327263D03*
Y337263D03*
X93850Y147263D03*
Y157263D03*
X97850Y327263D03*
Y337263D03*
X103850Y147263D03*
Y157263D03*
X107850Y327263D03*
Y337263D03*
X113850Y147263D03*
Y157263D03*
X117850Y327263D03*
Y337263D03*
X123850Y147263D03*
Y157263D03*
X133850Y147263D03*
Y157263D03*
Y327263D03*
Y337263D03*
X143850Y327263D03*
Y337263D03*
X153850Y327263D03*
Y337263D03*
X163850Y327263D03*
Y337263D03*
X173850Y327263D03*
Y337263D03*
X183850Y327263D03*
Y337263D03*
X193850Y327263D03*
Y337263D03*
X203850Y327263D03*
Y337263D03*
X323127Y328437D03*
Y338437D03*
X333127Y328437D03*
Y338437D03*
X343127Y328437D03*
Y338437D03*
X353127Y328437D03*
Y338437D03*
X359127Y148437D03*
Y158437D03*
X363127Y328437D03*
Y338437D03*
X369127Y148437D03*
Y158437D03*
X373127Y328437D03*
Y338437D03*
X379127Y148437D03*
Y158437D03*
X383127Y328437D03*
Y338437D03*
X389127Y148437D03*
Y158437D03*
X393127Y328437D03*
Y338437D03*
X399127Y148437D03*
Y158437D03*
X403127Y328437D03*
Y338437D03*
X409127Y148437D03*
Y158437D03*
X413127Y328437D03*
Y338437D03*
X419127Y148437D03*
Y158437D03*
X429127Y148437D03*
Y158437D03*
Y328437D03*
Y338437D03*
X439127Y328437D03*
Y338437D03*
X449127Y328437D03*
Y338437D03*
X459127Y328437D03*
Y338437D03*
X469127Y328437D03*
Y338437D03*
X479127Y328437D03*
Y338437D03*
X489127Y328437D03*
Y338437D03*
X499127Y328437D03*
Y338437D03*
D02*
D24*
X12350Y292763D02*
X14850D01*
Y292263*
X16850*
X14442Y551265D02*
X24442D01*
Y546265*
X63353*
X16850Y262263D02*
X12350D01*
Y292763*
X26850Y292263D02*
X19850D01*
Y292763*
X12350*
X26850Y292263D02*
X36850D01*
X26850Y302263D02*
X16850D01*
X36850Y202263D02*
X56850D01*
X36850Y292263D02*
Y297522D01*
X96850*
Y292263*
X36850Y302263D02*
X26850D01*
X43442Y566265D02*
Y556265D01*
X44442Y501265D02*
Y531265D01*
X104442*
X46850Y292263D02*
X56850D01*
X46850Y302263D02*
X36850D01*
X53442Y566265D02*
Y556265D01*
X54192Y406265D02*
X69442D01*
Y361265*
X239454*
X56850Y172263D02*
X48850D01*
Y165763*
X56850Y202263D02*
X61350D01*
X56850Y292263D02*
X66850D01*
X56850Y302263D02*
X46850D01*
X56850D02*
X66850D01*
X57850Y317263D02*
Y302263D01*
Y327263D02*
Y317263D01*
X61350Y202263D02*
Y177263D01*
X176850*
Y182263*
X61350Y202263D02*
X66850D01*
X61942Y451265D02*
X68192D01*
Y426265*
X110692*
X63442Y566265D02*
Y556265D01*
X63850Y157263D02*
Y147263D01*
X66850Y182263D02*
X76850D01*
X66850Y292263D02*
X76850D01*
X66850Y302263D02*
X76850D01*
X67850Y317263D02*
X77850D01*
X67850D02*
X57850D01*
X73442Y556265D02*
Y546265D01*
X73462*
X73442Y566265D02*
Y556265D01*
X73462Y546265D02*
X63353D01*
X73462D02*
X83446D01*
X73850Y157263D02*
Y147263D01*
X74442Y501265D02*
X84442D01*
Y431265*
X76850Y172263D02*
X86850D01*
X76850Y292263D02*
X81728D01*
Y277180*
X77850Y317263D02*
X87850D01*
X79442Y386265D02*
Y376265D01*
X81728Y277180D02*
Y262263D01*
X76850*
X83442Y566265D02*
Y556265D01*
X83446Y546265D02*
X93306D01*
X83850Y157263D02*
Y147263D01*
X86850Y172263D02*
X96850D01*
X87850Y317263D02*
X97850D01*
X89442Y386265D02*
Y376265D01*
X93306Y546265D02*
X103415D01*
X93442Y566265D02*
Y556265D01*
X93850Y157263D02*
Y147263D01*
X96850Y172263D02*
X106850D01*
X96850Y182263D02*
X116850D01*
X96850Y192263D02*
X106850D01*
X96850Y262263D02*
X91837D01*
Y182263*
X76850*
X96850Y272263D02*
X101946D01*
Y242263*
X106850*
X96850Y272263D02*
Y277180D01*
X81728*
X96850Y292263D02*
Y282263D01*
Y292263D02*
X106850D01*
X97850Y317263D02*
X107850D01*
X99442Y386265D02*
Y376265D01*
Y396265D02*
X89442D01*
X103415Y546265D02*
X113399D01*
X103442Y566265D02*
Y556265D01*
X103850Y157263D02*
Y147263D01*
X104442Y501265D02*
X94442D01*
Y431265*
X104442Y531265D02*
X139442D01*
X104442D02*
Y521265D01*
X106850Y172263D02*
X116850D01*
X106850Y192263D02*
X116850D01*
X106850Y292263D02*
X166850D01*
X107850Y317263D02*
X117850D01*
X109442Y376265D02*
Y371265D01*
X219360*
X109442Y386265D02*
Y376265D01*
Y396265D02*
X119442D01*
X109442D02*
X99442D01*
X113399Y546265D02*
X123383D01*
X113442Y566265D02*
Y556265D01*
X113850Y152263D02*
Y157263D01*
X116850Y172263D02*
X114850D01*
Y152263*
X116850Y172263D02*
X126850D01*
X116850Y182263D02*
X136850D01*
X116850Y192263D02*
X126850D01*
X117850Y317263D02*
X133850D01*
X119442Y386265D02*
Y376265D01*
X123383Y546265D02*
X133368D01*
X123442Y566265D02*
Y556265D01*
X123850Y157263D02*
Y147263D01*
X126850Y172263D02*
X136850D01*
X126850Y192263D02*
X136850D01*
X129442Y386265D02*
Y396265D01*
Y386265D02*
Y376265D01*
Y396265D02*
X119442D01*
X133368Y546265D02*
X149442D01*
X133442Y566265D02*
Y556265D01*
X133850Y157263D02*
Y147263D01*
Y317263D02*
X143850D01*
X134491Y421206D02*
X145349D01*
X134491Y431206D02*
X145349D01*
X136850Y172263D02*
X145600D01*
Y167513*
X153865*
X136850Y182263D02*
X156850D01*
X136850Y192263D02*
X146850D01*
X139442Y386265D02*
Y396265D01*
Y386265D02*
Y376265D01*
Y396265D02*
X129442D01*
X139442D02*
X149442D01*
X139442Y501265D02*
X134442D01*
X139442D02*
X144442D01*
X139442Y531265D02*
Y501265D01*
X143850Y317263D02*
X153850D01*
X145349Y421206D02*
Y426355D01*
X216942*
Y441265*
X146850Y192263D02*
X156850D01*
X149442Y386265D02*
Y376265D01*
Y396265D02*
X169442D01*
X149442Y546265D02*
X159442D01*
X149442Y566265D02*
Y556265D01*
X153850Y157263D02*
Y147263D01*
Y317263D02*
X163850D01*
X153865Y167513D02*
X163865D01*
X159442Y546265D02*
X169442D01*
X159442Y566265D02*
Y556265D01*
X163850Y157263D02*
Y147263D01*
Y317263D02*
X173850D01*
X163865Y167513D02*
X173865D01*
X166850Y292263D02*
Y182263D01*
X156850*
X166850Y302263D02*
Y292263D01*
Y302263D02*
X176850D01*
X169442Y386265D02*
Y376265D01*
Y546265D02*
X179442D01*
X169442Y566265D02*
Y556265D01*
X173850Y157263D02*
Y147263D01*
Y317263D02*
X183850D01*
X173865Y167513D02*
X183865D01*
X174442Y501265D02*
X184442D01*
Y431265*
X176850Y302263D02*
X196850D01*
X179442Y386265D02*
Y376265D01*
Y546265D02*
X189442D01*
X179442Y566265D02*
Y556265D01*
X183850Y157263D02*
Y147263D01*
Y317263D02*
X193850D01*
X183865Y167513D02*
X193865D01*
X186850Y272263D02*
X196850D01*
Y202263*
X189442Y386265D02*
Y376265D01*
Y546265D02*
X199442D01*
X189442Y566265D02*
Y556265D01*
X193850Y157263D02*
Y147263D01*
Y317263D02*
X203850D01*
X193865Y167513D02*
X203865D01*
X196850Y302263D02*
X206850D01*
X199442Y386265D02*
Y376265D01*
Y546265D02*
X209442D01*
X199442Y566265D02*
Y556265D01*
X203850Y157263D02*
Y147263D01*
X203865Y167513D02*
X216850D01*
X203865D02*
X186850D01*
Y192263*
X204442Y501265D02*
X194442D01*
Y431265*
X204442Y521265D02*
Y531265D01*
X229442*
X204442D02*
X139442D01*
X206850Y302263D02*
X216850D01*
X209442Y386265D02*
Y376265D01*
Y546265D02*
X219442D01*
X209442Y566265D02*
Y556265D01*
X216850Y167513D02*
X226850D01*
X216850Y272263D02*
X206850D01*
Y202263*
X216850Y292263D02*
Y302263D01*
X226850*
X219360Y366206D02*
Y371265D01*
X294405*
X219442Y386265D02*
Y376265D01*
Y546265D02*
X239442D01*
X219442Y566265D02*
Y556265D01*
X226850Y167513D02*
X236850D01*
X226850Y302263D02*
X246850D01*
X229442Y386265D02*
Y376265D01*
Y531265D02*
X237905D01*
Y521265*
X229442Y531265D02*
Y501265D01*
X234442*
X236850Y167513D02*
X246850D01*
X236942Y441265D02*
Y416265D01*
X61942*
Y426265*
X54442*
X239442Y386265D02*
Y376265D01*
Y566265D02*
Y556265D01*
X239454Y361265D02*
X454442D01*
Y391265*
X239454Y366330D02*
Y361265D01*
X246850Y222263D02*
X236850D01*
Y242263*
X246850Y222263D02*
Y167513D01*
X249442Y501265D02*
X259442D01*
Y431265*
X249442Y566265D02*
Y556265D01*
X259442Y386265D02*
Y376265D01*
Y566265D02*
Y556265D01*
X269442Y386265D02*
Y376265D01*
Y566265D02*
Y556265D01*
X279442Y386265D02*
Y376265D01*
Y396265D02*
X289442D01*
X279442Y501265D02*
X269442D01*
Y431265*
X279442Y521265D02*
X249442D01*
X279442Y556265D02*
X284383D01*
Y536437*
X279442Y566265D02*
Y556265D01*
X288149Y231097D02*
X283157D01*
Y313467*
X382127*
Y308437*
X288149Y231097D02*
Y173813D01*
X336198*
Y168446*
X288149Y241097D02*
X294916D01*
Y311097*
X316978*
Y308437*
X289442Y386265D02*
Y376265D01*
Y396265D02*
X299442D01*
X289442Y556265D02*
X294405D01*
Y536387*
X289442Y566265D02*
Y556265D01*
X294127Y198437D02*
Y178437D01*
X304127*
X294127Y198437D02*
Y201097D01*
X299373*
Y241097*
X304373*
X294405Y371265D02*
X449442D01*
Y381265*
X294467Y411387D02*
X299442D01*
Y386265D02*
Y376265D01*
Y436265D02*
X304405D01*
Y391387*
X294405*
Y371265*
X299442Y566265D02*
Y556265D01*
X304373Y231097D02*
X314373D01*
Y203437*
X314357*
X309442Y386265D02*
Y376265D01*
Y436265D02*
X314685D01*
Y411387*
X319442*
X309442Y566265D02*
Y556265D01*
X314127Y198437D02*
X314357D01*
Y203437*
X476249*
Y228437*
X482127*
X316978Y308437D02*
X317353D01*
Y278772*
Y278437*
X323156*
X319442Y386265D02*
Y376265D01*
Y436265D02*
Y431265D01*
X344442*
X322969Y318437D02*
X333078D01*
X323127Y338437D02*
Y328437D01*
X323156Y308437D02*
X316978D01*
X324442Y546265D02*
Y551265D01*
X344442*
Y552515*
X324442Y556265D02*
X330692D01*
Y571265*
X384442*
Y496265*
X399442*
X324442Y566265D02*
X317405D01*
Y532387*
X243905*
Y441265*
X236942*
X326089Y145437D02*
X350589D01*
Y142187*
X379127*
Y158437*
X326249Y178437D02*
X304127D01*
X326249D02*
X336249D01*
X326249Y225937D02*
X317353D01*
Y278772*
X326249Y225937D02*
X336249D01*
X329442Y386265D02*
Y376265D01*
X333078Y318437D02*
X343187D01*
X333127Y338437D02*
Y328437D01*
X333156Y278437D02*
X323156D01*
X333156Y308437D02*
X323156D01*
X336198Y168446D02*
X356167D01*
X336249Y225937D02*
X346249D01*
X343127Y338437D02*
Y328437D01*
X343156Y308437D02*
X353156D01*
X343187Y318437D02*
X353046D01*
X344442Y386265D02*
Y431265D01*
Y552515*
Y566265*
X346249Y178437D02*
X336249D01*
X346249Y225937D02*
X356249D01*
X349442Y396265D02*
X361942D01*
Y376265*
X369442*
X353046Y318437D02*
X363156D01*
Y318459*
X353046Y318437D02*
Y328437D01*
X353127*
Y338437D02*
Y328437D01*
X353156Y278437D02*
X343156D01*
X353156Y308437D02*
X363156D01*
X356167Y168446D02*
X376509D01*
Y168321*
X356249Y178437D02*
X346249D01*
X356249D02*
X366249D01*
X356249Y225937D02*
X366249D01*
X359127Y158437D02*
Y148437D01*
X363127Y338437D02*
Y328437D01*
X363156Y278437D02*
X382127D01*
X363156D02*
X353156D01*
X363156Y308437D02*
X382127D01*
X363156Y318459D02*
X373140D01*
X363192Y446265D02*
Y476765D01*
X367442*
Y476265*
X369442*
X366249Y178437D02*
X376249D01*
X366249Y225937D02*
X376249D01*
X369127Y158437D02*
Y148437D01*
X369442Y376265D02*
X379442D01*
X369442Y426265D02*
X363192D01*
Y446265*
X369442Y436265D02*
X379442D01*
X369442Y446265D02*
X379442D01*
X369442D02*
X363192D01*
X369442Y456265D02*
X379442D01*
X369442Y496265D02*
Y486265D01*
X373127Y338437D02*
Y328437D01*
X373140Y318459D02*
X383124D01*
X376249Y178437D02*
X386249D01*
X376249Y225937D02*
X386249D01*
X376509Y168321D02*
X396478D01*
X379442Y366265D02*
X399442D01*
X379442Y376265D02*
X389442D01*
X379442Y426265D02*
X369442D01*
X379442Y436265D02*
X389442D01*
X379442Y446265D02*
X389442D01*
X379442Y456265D02*
X389442D01*
X379442Y476265D02*
X372442D01*
Y476765*
X363192*
X379442Y476265D02*
X389442D01*
X379442Y486265D02*
X369442D01*
X382127Y278437D02*
Y308437D01*
X403093*
X383124Y318459D02*
X392983D01*
X383127Y338437D02*
Y328437D01*
X386249Y178437D02*
X396249D01*
X386249Y225937D02*
X396249D01*
X389127Y158437D02*
Y148437D01*
X389442Y376265D02*
X399442D01*
X389442Y426265D02*
X379442D01*
X389442Y436265D02*
X399442D01*
X389442Y446265D02*
X399442D01*
X389442Y456265D02*
X399442D01*
X389442Y476265D02*
X399442D01*
X389442Y486265D02*
X379442D01*
X392983Y318459D02*
X403217D01*
X393127Y338437D02*
Y328437D01*
X396249Y178437D02*
X412127D01*
X399127Y148437D02*
Y139437D01*
X437127*
Y188437*
X458354*
X399127Y158437D02*
X403717D01*
Y168321*
X396478*
X399127Y158437D02*
Y148437D01*
X399442Y366265D02*
X419442D01*
X399442Y376265D02*
X409442D01*
X399442Y426265D02*
X389442D01*
X399442Y436265D02*
X409442D01*
X399442Y456265D02*
X409442D01*
X399442Y486265D02*
X409442D01*
X399442D02*
X389442D01*
X399442Y496265D02*
X434442D01*
X403093Y308437D02*
X413451D01*
X403127Y338437D02*
Y328437D01*
X403217Y228352D02*
Y233593D01*
X397102*
Y278437*
X382127*
X403217Y318459D02*
X413326D01*
X409127Y158437D02*
Y148437D01*
X409442Y376265D02*
X419442D01*
X409442Y426265D02*
X399442D01*
X409442Y436265D02*
X419442D01*
X409442Y446265D02*
X419442D01*
X409442Y456265D02*
X419442D01*
X409442Y476265D02*
X419442D01*
X409442Y486265D02*
X419442D01*
X412127Y178437D02*
X409127D01*
Y158437*
X412127Y178437D02*
Y198437D01*
Y278437D02*
X422127D01*
Y208437*
X413127Y338437D02*
Y328437D01*
X413326Y318459D02*
X429127D01*
Y318437*
X413451Y308437D02*
X442127D01*
X419127Y158437D02*
Y148437D01*
X419442Y366265D02*
X439442D01*
X419442Y376265D02*
X429442D01*
X419442Y426265D02*
X409442D01*
X419442Y436265D02*
X429442D01*
X419442Y446265D02*
X429526D01*
X419442Y456265D02*
X429526D01*
X419442Y476265D02*
X429526D01*
X419442Y486265D02*
X429526D01*
X424658Y401265D02*
Y426265D01*
X429442*
X429127Y158437D02*
Y148437D01*
Y318437D02*
X439127D01*
X429127Y338437D02*
Y328437D01*
X429442Y376265D02*
X439442D01*
X429442Y426265D02*
X419442D01*
X429442Y436265D02*
X439442D01*
X429526Y446265D02*
X439526D01*
X429526Y456265D02*
X439526D01*
X429526Y476265D02*
X439526D01*
X429526Y486265D02*
X439526D01*
X434442Y496265D02*
X454442D01*
Y506265*
X434442Y496265D02*
Y506265D01*
Y516265*
Y526265*
Y536265*
Y546265*
Y556265*
Y566265*
Y576265*
X439127Y318437D02*
X449127D01*
X439127Y338437D02*
Y328437D01*
X439442Y426265D02*
X429442D01*
X439526Y446265D02*
X449526D01*
X439526Y456265D02*
X449526D01*
X439526Y476265D02*
X449526D01*
X439526Y486265D02*
X449526D01*
X442127Y278437D02*
X432127D01*
Y208437*
X442127Y308437D02*
Y298437D01*
Y308437D02*
X472127D01*
X444442Y436265D02*
Y376265D01*
X439442*
X444442Y436265D02*
X439442D01*
X449127Y158437D02*
Y148437D01*
Y168437D02*
X459127D01*
X449127Y318437D02*
X459127D01*
X449127Y338437D02*
Y328437D01*
X449526Y446265D02*
X459526D01*
X449526Y456265D02*
X459526D01*
X449526Y476265D02*
X459526D01*
X449526Y486265D02*
X459526D01*
X454442Y391265D02*
Y407515D01*
X459442*
X454442Y506265D02*
Y516265D01*
Y526265*
Y536265*
Y546265*
Y556265*
Y566265*
Y576265*
X458354Y198437D02*
X469127D01*
Y168437*
X459127Y158437D02*
Y148437D01*
Y168437D02*
X469127D01*
X459127Y318437D02*
X469127D01*
X459127Y338437D02*
Y328437D01*
X459442Y391265D02*
X454442D01*
X459526Y456265D02*
X464442D01*
X459526Y486265D02*
X464442D01*
Y456265*
Y436265*
X444442*
X469127Y158437D02*
Y148437D01*
Y168437D02*
X479127D01*
X469127Y318437D02*
X479127D01*
X469127Y338437D02*
Y328437D01*
X472127Y308437D02*
Y278437D01*
Y308437D02*
X492127D01*
X479127Y158437D02*
Y148437D01*
Y168437D02*
X489127D01*
X479127Y338437D02*
Y328437D01*
X489127Y158437D02*
Y148437D01*
Y168437D02*
X499127D01*
X489127Y338437D02*
Y328437D01*
X492127Y278437D02*
X503127D01*
Y208437*
X502127*
X492127Y308437D02*
X502127D01*
X499127Y158437D02*
Y148437D01*
Y168437D02*
Y178437D01*
X512127*
X499127Y338437D02*
Y328437D01*
X502127Y308437D02*
X512127D01*
Y178437D02*
X522127D01*
X512127Y308437D02*
X522127D01*
Y178437D02*
X532127D01*
X522127Y198437D02*
Y178437D01*
Y278437D02*
X512127D01*
Y208437*
X522127Y298437D02*
Y308437D01*
X542127*
X532127Y178437D02*
X542127D01*
Y228437D02*
Y178437D01*
D02*
D74*
X339442Y566265D02*
X344442D01*
X349442*
D02*
D77*
X16850Y202263D03*
X19442Y426265D03*
X26850Y182263D03*
X29442Y405387D03*
X36850Y202263D03*
X39442Y426265D03*
X294127Y198437D03*
X304127Y178437D03*
X314127Y198437D03*
D02*
D78*
X253656Y85783D03*
X269404D03*
X277278Y26728D03*
Y85783D03*
X285152Y26728D03*
Y85783D03*
X293026Y26728D03*
Y85783D03*
X300900Y26728D03*
Y85783D03*
D02*
D79*
X269404Y26728D03*
D02*
D80*
X32406Y27773D03*
Y37773D03*
Y47773D03*
Y57773D03*
Y67773D03*
Y77773D03*
X221006Y26419D03*
Y36419D03*
Y46419D03*
Y56419D03*
Y66419D03*
Y76419D03*
D02*
D81*
X152466Y37733D03*
Y47733D03*
Y57733D03*
Y67733D03*
Y77733D03*
X341067Y36380D03*
Y46380D03*
Y56380D03*
Y66380D03*
Y76380D03*
D02*
D82*
X64806Y87261D02*
Y80174D01*
X62365Y77733*
X32406Y77773*
X80554Y28206D02*
Y35922D01*
X122365Y77733*
X152466*
X80554Y87261D02*
Y85922D01*
X62365Y67733*
X32406Y67773*
X88428Y28206D02*
Y33796D01*
X122365Y67733*
X152466*
X88428Y87261D02*
Y83796D01*
X62365Y57733*
X32406Y57773*
X96302Y28206D02*
Y31670D01*
X122365Y57733*
X152466*
X96302Y87261D02*
Y81670D01*
X62365Y47733*
X32406Y47773*
X104176Y28206D02*
Y29544D01*
X122365Y47733*
X152466*
X104176Y87261D02*
Y79544D01*
X62365Y37733*
X32406Y37773*
X112050Y28206D02*
X112837D01*
X122365Y37733*
X152466*
X112050Y87261D02*
Y77419D01*
X62365Y27733*
X32406Y27773*
X253407Y85907D02*
Y78821D01*
X250966Y76380*
X221006Y76419*
X269155Y26852D02*
Y34569D01*
X310966Y76380*
X341067*
X269155Y85907D02*
Y84569D01*
X250966Y66380*
X221006Y66419*
X277029Y26852D02*
Y32443D01*
X310966Y66380*
X341067*
X277029Y85907D02*
Y82443D01*
X250966Y56380*
X221006Y56419*
X284903Y26852D02*
Y30317D01*
X310966Y56380*
X341067*
X284903Y85907D02*
Y80317D01*
X250966Y46380*
X221006Y46419*
X292777Y26852D02*
Y28191D01*
X310966Y46380*
X341067*
X292777Y85907D02*
Y78191D01*
X250966Y36380*
X221006Y36419*
X300651Y26852D02*
X301438D01*
X310966Y36380*
X341067*
X300651Y85907D02*
Y76065D01*
X250966Y26380*
X221006Y26419*
X0Y0D02*
M02*
