%FSLAX35Y35*%
%MOIN*%
G04 EasyPC Gerber Version 18.0.8 Build 3632 *
%ADD84C,0.00450*%
%ADD11C,0.00500*%
%ADD15C,0.00600*%
%ADD83C,0.00750*%
X0Y0D02*
D02*
D11*
X144453Y6452D02*
Y106058D01*
X40516*
Y6452*
X144453*
X333184D02*
Y106058D01*
X229247*
Y6452*
X333184*
X524353D02*
Y106058D01*
X420416*
Y6452*
X524353*
X561920Y250D02*
Y590250D01*
X250*
Y250*
X561920*
D02*
D15*
X77808Y121187D02*
X75808D01*
X76808Y120187D02*
Y122187D01*
X87790Y120938D02*
X87040D01*
Y120688*
X87290Y120188*
X87540Y119938*
X88040Y119688*
X88540*
X89040Y119938*
X89290Y120188*
X89540Y120688*
Y121688*
X89290Y122188*
X89040Y122438*
X88540Y122688*
X88040*
X87540Y122438*
X87290Y122188*
X87040Y121688*
X101396Y119563D02*
Y122563D01*
X99646*
X99146Y122313*
X98896Y121813*
X99146Y121313*
X99646Y121063*
X101396*
X99646D02*
X98896Y119563D01*
X97396D02*
X94896Y122563D01*
X97396D02*
X94896Y119563D01*
X115998Y120062D02*
Y122062D01*
Y121312D02*
X115748Y121812D01*
X115248Y122062*
X114748*
X114248Y121812*
X109998Y120312D02*
X110248Y120062D01*
X110748*
X111248*
X111748Y120312*
X111998Y120812*
Y121562*
X111748Y121812*
X111248Y122062*
X110748*
X110248Y121812*
X109998Y121562*
Y121312*
X110248Y121062*
X110748Y120812*
X111248*
X111748Y121062*
X111998Y121312*
X107998Y120312D02*
X107498Y120062D01*
X106498*
X105998Y120312*
Y120812*
X106498Y121062*
X107498*
X107998Y121312*
Y121812*
X107498Y122062*
X106498*
X105998Y121812*
X266396Y121004D02*
X264396D01*
X265396Y120004D02*
Y122004D01*
X276378Y120755D02*
X275628D01*
Y120505*
X275878Y120005*
X276128Y119755*
X276628Y119505*
X277128*
X277628Y119755*
X277878Y120005*
X278128Y120505*
Y121505*
X277878Y122005*
X277628Y122255*
X277128Y122505*
X276628*
X276128Y122255*
X275878Y122005*
X275628Y121505*
X289984Y119380D02*
Y122380D01*
X288234*
X287734Y122130*
X287484Y121630*
X287734Y121130*
X288234Y120880*
X289984*
X288234D02*
X287484Y119380D01*
X285984D02*
X283484Y122380D01*
X285984D02*
X283484Y119380D01*
X304586Y119880D02*
Y121880D01*
Y121130D02*
X304336Y121630D01*
X303836Y121880*
X303336*
X302836Y121630*
X298586Y120130D02*
X298836Y119880D01*
X299336*
X299836*
X300336Y120130*
X300586Y120630*
Y121380*
X300336Y121630*
X299836Y121880*
X299336*
X298836Y121630*
X298586Y121380*
Y121130*
X298836Y120880*
X299336Y120630*
X299836*
X300336Y120880*
X300586Y121130*
X296586Y120130D02*
X296086Y119880D01*
X295086*
X294586Y120130*
Y120630*
X295086Y120880*
X296086*
X296586Y121130*
Y121630*
X296086Y121880*
X295086*
X294586Y121630*
X456835Y121187D02*
X454835D01*
X455835Y120187D02*
Y122187D01*
X466816Y120938D02*
X466066D01*
Y120688*
X466316Y120188*
X466566Y119938*
X467066Y119688*
X467566*
X468066Y119938*
X468316Y120188*
X468566Y120688*
Y121688*
X468316Y122188*
X468066Y122438*
X467566Y122688*
X467066*
X466566Y122438*
X466316Y122188*
X466066Y121688*
X480422Y119563D02*
Y122563D01*
X478672*
X478172Y122313*
X477922Y121813*
X478172Y121313*
X478672Y121063*
X480422*
X478672D02*
X477922Y119563D01*
X476422D02*
X473922Y122563D01*
X476422D02*
X473922Y119563D01*
X495024Y120062D02*
Y122062D01*
Y121312D02*
X494774Y121812D01*
X494274Y122062*
X493774*
X493274Y121812*
X489024Y120312D02*
X489274Y120062D01*
X489774*
X490274*
X490774Y120312*
X491024Y120812*
Y121562*
X490774Y121812*
X490274Y122062*
X489774*
X489274Y121812*
X489024Y121562*
Y121312*
X489274Y121062*
X489774Y120812*
X490274*
X490774Y121062*
X491024Y121312*
X487024Y120312D02*
X486524Y120062D01*
X485524*
X485024Y120312*
Y120812*
X485524Y121062*
X486524*
X487024Y121312*
Y121812*
X486524Y122062*
X485524*
X485024Y121812*
D02*
D83*
X48596Y45671D02*
Y49421D01*
X46721*
X46096Y49109*
X45784Y48796*
X45471Y48171*
Y46921*
X45784Y46296*
X46096Y45983*
X46721Y45671*
X48596*
X42971D02*
X41721D01*
X42346D02*
Y49421D01*
X42971Y48796*
X48596Y55671D02*
Y59421D01*
X46721*
X46096Y59109*
X45784Y58796*
X45471Y58171*
Y56921*
X45784Y56296*
X46096Y55983*
X46721Y55671*
X48596*
X43284Y55983D02*
X42659Y55671D01*
X42034*
X41409Y55983*
X41096Y56609*
Y58483*
X41409Y59109*
X42034Y59421*
X42659*
X43284Y59109*
X43596Y58483*
Y56609*
X43284Y55983*
X41409Y59109*
X52034Y25671D02*
Y29421D01*
X53596D02*
X50471D01*
X47659Y25671D02*
X46409D01*
X47034D02*
Y29421D01*
X47659D02*
X46409D01*
X43596Y25671D02*
Y29421D01*
X41409*
X40784Y29109*
X40471Y28483*
X40784Y27859*
X41409Y27546*
X43596*
X41409D02*
X40471Y25671D01*
X53596Y79421D02*
X52034Y75671D01*
X50471Y79421*
X45471Y76296D02*
X45784Y75983D01*
X46409Y75671*
X47346*
X47971Y75983*
X48284Y76296*
X48596Y76921*
Y78171*
X48284Y78796*
X47971Y79109*
X47346Y79421*
X46409*
X45784Y79109*
X45471Y78796*
X40471Y76296D02*
X40784Y75983D01*
X41409Y75671*
X42346*
X42971Y75983*
X43284Y76296*
X43596Y76921*
Y78171*
X43284Y78796*
X42971Y79109*
X42346Y79421*
X41409*
X40784Y79109*
X40471Y78796*
X58596Y35671D02*
Y39421D01*
X55471*
X56096Y37546D02*
X58596D01*
X53596Y36921D02*
Y38171D01*
X53284Y38796*
X52971Y39109*
X52346Y39421*
X51721*
X51096Y39109*
X50784Y38796*
X50471Y38171*
Y36921*
X50784Y36296*
X51096Y35983*
X51721Y35671*
X52346*
X52971Y35983*
X53284Y36296*
X53596Y36921*
X48596Y35671D02*
Y39421D01*
X46409*
X45784Y39109*
X45471Y38483*
X45784Y37859*
X46409Y37546*
X48596*
X46409D02*
X45471Y35671D01*
X43596D02*
Y39421D01*
X42034Y37546*
X40471Y39421*
Y35671*
X58596Y65671D02*
Y69421D01*
X56409*
X55784Y69109*
X55471Y68483*
X55784Y67859*
X56409Y67546*
X58596*
X56409D02*
X55471Y65671D01*
X53596D02*
Y69421D01*
X50471*
X51096Y67546D02*
X53596D01*
Y65671D02*
X50471D01*
X48596D02*
X47034Y69421D01*
X45471Y65671*
X47971Y67233D02*
X46096D01*
X43596Y65671D02*
Y69421D01*
X41721*
X41096Y69109*
X40784Y68796*
X40471Y68171*
Y66921*
X40784Y66296*
X41096Y65983*
X41721Y65671*
X43596*
X131840Y49796D02*
X133403Y46046D01*
X134965Y49796*
X132465Y48233D02*
X134340D01*
X136840Y49796D02*
Y46046D01*
X139965Y49796*
Y46046*
X143403Y49796D02*
Y46046D01*
X141840D02*
X144965D01*
X131840Y59796D02*
X133403Y56046D01*
X134965Y59796*
X132465Y58233D02*
X134340D01*
X136840Y59796D02*
Y56046D01*
X139965Y59796*
Y56046*
X143403Y59796D02*
Y56046D01*
X141840D02*
X144965D01*
X134028Y78233D02*
X134965D01*
Y78546*
X134653Y79171*
X134340Y79483*
X133715Y79796*
X133090*
X132465Y79483*
X132153Y79171*
X131840Y78546*
Y77296*
X132153Y76671*
X132465Y76358*
X133090Y76046*
X133715*
X134340Y76358*
X134653Y76671*
X134965Y77296*
X136840Y79796D02*
Y76046D01*
X139965Y79796*
Y76046*
X141840Y79796D02*
Y76046D01*
X143715*
X144340Y76358*
X144653Y76671*
X144965Y77296*
Y78546*
X144653Y79171*
X144340Y79483*
X143715Y79796*
X141840*
X132340Y68796D02*
Y65046D01*
X134528*
X135153Y65358*
X135465Y65983*
X135153Y66608*
X134528Y66921*
X132340*
X134528D02*
X135465Y68796D01*
X137340D02*
Y65046D01*
X140465*
X139840Y66921D02*
X137340D01*
Y68796D02*
X140465D01*
X142340Y67858D02*
X142653Y68483D01*
X143278Y68796*
X144528*
X145153Y68483*
X145465Y67858*
X145153Y67233*
X144528Y66921*
X143278*
X142653Y66608*
X142340Y65983*
X142653Y65358*
X143278Y65046*
X144528*
X145153Y65358*
X145465Y65983*
X139965Y39171D02*
X139653Y39483D01*
X139028Y39796*
X138090*
X137465Y39483*
X137153Y39171*
X136840Y38546*
Y37296*
X137153Y36671*
X137465Y36358*
X138090Y36046*
X139028*
X139653Y36358*
X139965Y36671*
X141840Y39796D02*
Y36046D01*
X144028*
X144653Y36358*
X144965Y36983*
X144653Y37608*
X144028Y37921*
X141840*
X238471Y44317D02*
Y48067D01*
X236596*
X235971Y47755*
X235658Y47443*
X235346Y46817*
Y45567*
X235658Y44943*
X235971Y44630*
X236596Y44317*
X238471*
X232846D02*
X231596D01*
X232221D02*
Y48067D01*
X232846Y47443*
X238471Y54317D02*
Y58067D01*
X236596*
X235971Y57755*
X235658Y57443*
X235346Y56817*
Y55567*
X235658Y54943*
X235971Y54630*
X236596Y54317*
X238471*
X233158Y54630D02*
X232533Y54317D01*
X231908*
X231283Y54630*
X230971Y55255*
Y57130*
X231283Y57755*
X231908Y58067*
X232533*
X233158Y57755*
X233471Y57130*
Y55255*
X233158Y54630*
X231283Y57755*
X241908Y24317D02*
Y28067D01*
X243471D02*
X240346D01*
X237533Y24317D02*
X236283D01*
X236908D02*
Y28067D01*
X237533D02*
X236283D01*
X233471Y24317D02*
Y28067D01*
X231283*
X230658Y27755*
X230346Y27130*
X230658Y26505*
X231283Y26193*
X233471*
X231283D02*
X230346Y24317D01*
X243471Y78067D02*
X241908Y74317D01*
X240346Y78067*
X235346Y74943D02*
X235658Y74630D01*
X236283Y74317*
X237221*
X237846Y74630*
X238158Y74943*
X238471Y75567*
Y76817*
X238158Y77443*
X237846Y77755*
X237221Y78067*
X236283*
X235658Y77755*
X235346Y77443*
X230346Y74943D02*
X230658Y74630D01*
X231283Y74317*
X232221*
X232846Y74630*
X233158Y74943*
X233471Y75567*
Y76817*
X233158Y77443*
X232846Y77755*
X232221Y78067*
X231283*
X230658Y77755*
X230346Y77443*
X248471Y34317D02*
Y38067D01*
X245346*
X245971Y36193D02*
X248471D01*
X243471Y35567D02*
Y36817D01*
X243158Y37443*
X242846Y37755*
X242221Y38067*
X241596*
X240971Y37755*
X240658Y37443*
X240346Y36817*
Y35567*
X240658Y34943*
X240971Y34630*
X241596Y34317*
X242221*
X242846Y34630*
X243158Y34943*
X243471Y35567*
X238471Y34317D02*
Y38067D01*
X236283*
X235658Y37755*
X235346Y37130*
X235658Y36505*
X236283Y36193*
X238471*
X236283D02*
X235346Y34317D01*
X233471D02*
Y38067D01*
X231908Y36193*
X230346Y38067*
Y34317*
X248471Y64317D02*
Y68067D01*
X246283*
X245658Y67755*
X245346Y67130*
X245658Y66505*
X246283Y66193*
X248471*
X246283D02*
X245346Y64317D01*
X243471D02*
Y68067D01*
X240346*
X240971Y66193D02*
X243471D01*
Y64317D02*
X240346D01*
X238471D02*
X236908Y68067D01*
X235346Y64317*
X237846Y65880D02*
X235971D01*
X233471Y64317D02*
Y68067D01*
X231596*
X230971Y67755*
X230658Y67443*
X230346Y66817*
Y65567*
X230658Y64943*
X230971Y64630*
X231596Y64317*
X233471*
X317222Y48443D02*
X318784Y44693D01*
X320347Y48443*
X317847Y46880D02*
X319722D01*
X322222Y48443D02*
Y44693D01*
X325347Y48443*
Y44693*
X328784Y48443D02*
Y44693D01*
X327222D02*
X330347D01*
X317222Y58443D02*
X318784Y54693D01*
X320347Y58443*
X317847Y56880D02*
X319722D01*
X322222Y58443D02*
Y54693D01*
X325347Y58443*
Y54693*
X328784Y58443D02*
Y54693D01*
X327222D02*
X330347D01*
X319409Y76880D02*
X320347D01*
Y77193*
X320034Y77817*
X319722Y78130*
X319097Y78443*
X318472*
X317847Y78130*
X317534Y77817*
X317222Y77193*
Y75943*
X317534Y75317*
X317847Y75005*
X318472Y74693*
X319097*
X319722Y75005*
X320034Y75317*
X320347Y75943*
X322222Y78443D02*
Y74693D01*
X325347Y78443*
Y74693*
X327222Y78443D02*
Y74693D01*
X329097*
X329722Y75005*
X330034Y75317*
X330347Y75943*
Y77193*
X330034Y77817*
X329722Y78130*
X329097Y78443*
X327222*
X317722Y67443D02*
Y63693D01*
X319909*
X320534Y64005*
X320847Y64630*
X320534Y65255*
X319909Y65567*
X317722*
X319909D02*
X320847Y67443D01*
X322722D02*
Y63693D01*
X325847*
X325222Y65567D02*
X322722D01*
Y67443D02*
X325847D01*
X327722Y66505D02*
X328034Y67130D01*
X328659Y67443*
X329909*
X330534Y67130*
X330847Y66505*
X330534Y65880*
X329909Y65567*
X328659*
X328034Y65255*
X327722Y64630*
X328034Y64005*
X328659Y63693*
X329909*
X330534Y64005*
X330847Y64630*
X325347Y37817D02*
X325034Y38130D01*
X324409Y38443*
X323472*
X322847Y38130*
X322534Y37817*
X322222Y37193*
Y35943*
X322534Y35317*
X322847Y35005*
X323472Y34693*
X324409*
X325034Y35005*
X325347Y35317*
X327222Y38443D02*
Y34693D01*
X329409*
X330034Y35005*
X330347Y35630*
X330034Y36255*
X329409Y36567*
X327222*
D02*
D84*
X251894Y7999D02*
X251144D01*
X251519D02*
Y10249D01*
X251894D02*
X251144D01*
X249457Y7999D02*
Y10249D01*
X248331*
X247957Y10061*
X247769Y9874*
X247581Y9499*
Y8749*
X247769Y8374*
X247957Y8186*
X248331Y7999*
X249457*
X246457Y8749D02*
X244957D01*
X243081Y7999D02*
X242331D01*
X242707D02*
Y10249D01*
X243081Y9874*
X238957Y7999D02*
X240457D01*
X239144Y9311*
X238957Y9686*
X239144Y10061*
X239519Y10249*
X240081*
X240457Y10061*
X237457Y10249D02*
Y7999D01*
X235581*
X234457D02*
X233519Y10249D01*
X232581Y7999*
X234081Y8936D02*
X232957D01*
X0Y0D02*
M02*
