%FSLAX35Y35*%
%MOIN*%
G04 EasyPC Gerber Version 18.0.8 Build 3632 *
%AMT21*0 Octagon Pad at angle 0*4,1,8,-0.01367,-0.03300,0.01367,-0.03300,0.03300,-0.01367,0.03300,0.01367,0.01367,0.03300,-0.01367,0.03300,-0.03300,0.01367,-0.03300,-0.01367,-0.01367,-0.03300,0*%
%ADD21T21*%
%ADD23O,0.05740X0.08610*%
%ADD20O,0.05746X0.07183*%
%ADD22O,0.06000X0.09000*%
%ADD79R,0.06000X0.06000*%
%ADD11C,0.00500*%
%ADD16C,0.00800*%
%ADD12C,0.01000*%
%ADD24C,0.01500*%
%ADD71C,0.03200*%
%ADD19C,0.05600*%
%ADD70C,0.06000*%
%ADD78C,0.06000*%
%ADD77C,0.07000*%
%ADD81C,0.07400*%
%ADD80O,0.09000X0.06000*%
X0Y0D02*
D02*
D11*
X561920Y250D02*
Y590250D01*
X250*
Y250*
X561920*
D02*
D12*
X14442Y511265D02*
X33503D01*
Y535531*
X58589*
Y551265*
X83442*
Y556265*
X14442Y521265D02*
X9442D01*
Y546265*
X32879*
Y556265*
X43442*
X14442Y531265D02*
X28514D01*
X28636Y531387*
Y538900*
X48105*
Y556265*
X53442*
X16850Y252263D02*
Y242263D01*
X26850Y222263D02*
X36850D01*
X26850Y252263D02*
Y242263D01*
X36850Y252263D02*
Y242263D01*
X46850Y252263D02*
Y242263D01*
X51850Y172263D02*
Y232263D01*
X56850Y252263D02*
Y242263D01*
X66850Y252263D02*
Y242263D01*
X67850Y327263D02*
X62850D01*
Y321513*
X21850*
Y282263*
X16850*
X76850Y252263D02*
Y242263D01*
Y282263D02*
Y277263D01*
X125350*
Y327263*
X133850*
X77850D02*
X72850D01*
Y313263*
X31850*
Y282263*
X26850*
X81850Y272263D02*
X76850D01*
X86850Y212263D02*
Y202263D01*
X87850Y327263D02*
X82850D01*
Y310263*
X41850*
Y282263*
X36850*
X96850Y202263D02*
X101600D01*
Y197263*
X111600*
Y167263*
X127850*
Y163513*
X149100*
Y157263*
X153850*
X96850Y212263D02*
Y202263D01*
X97850Y327263D02*
X92850D01*
Y307263*
X51850*
Y282263*
X46850*
X101850Y161263D02*
Y157263D01*
X103850*
X103442Y556265D02*
X98192D01*
Y541265*
X68192*
Y511265*
X106850Y212263D02*
Y202263D01*
X107850Y327263D02*
X102850D01*
Y297263*
X61850*
Y282263*
X56850*
X113442Y556265D02*
X108192D01*
Y538765*
X74442*
Y521265*
X114442Y441265D02*
Y436089D01*
X139109*
Y391659*
X159442*
Y386265*
X169442*
X116850Y202263D02*
X121600D01*
Y197263*
X131600*
Y177513*
X159100*
Y157263*
X163850*
X116850Y212263D02*
Y202263D01*
X117850Y327263D02*
X112850D01*
Y313263*
X112350*
Y287263*
X66850*
Y282263*
X123442Y556265D02*
Y557515D01*
X118192*
Y511265*
X104442*
X126850Y212263D02*
Y202263D01*
X133442Y556265D02*
Y557515D01*
X139442*
Y511265*
X154442*
X136850Y202263D02*
X141600D01*
Y197263*
X161600*
Y174013*
X179100*
Y157263*
X173850*
X136850Y212263D02*
Y202263D01*
X143850Y327263D02*
X149100D01*
Y268263*
X167850*
Y232263*
X186850*
X146850Y212263D02*
Y202263D01*
X149442Y556265D02*
X154442D01*
Y521265*
X174442*
X153850Y327263D02*
X159100D01*
Y282263*
X186850*
X156850Y202263D02*
X171600D01*
Y176513*
X188600*
Y157263*
X183850*
X156850Y212263D02*
Y202263D01*
X159442Y556265D02*
X164442D01*
Y526265*
X179442*
Y511265*
X204442*
X163850Y327263D02*
X169100D01*
Y315263*
X168850*
Y308263*
X171850*
Y287263*
X226850*
Y282263*
X165315Y441265D02*
Y436214D01*
X141106*
Y401269*
X161942*
Y391265*
X179442*
Y386265*
X169442Y556265D02*
X174442D01*
Y528765*
X229442*
Y491265*
X239442*
Y461265*
X249442*
X173850Y327263D02*
X179100D01*
Y308013*
X231850*
Y232263*
X226850*
X179442Y556265D02*
X184442D01*
Y532515*
X232905*
Y511265*
X249442*
X189442Y556265D02*
X194442D01*
Y539387*
X254442*
Y511265*
X279442*
X199442Y556265D02*
X204442D01*
Y541387*
X256942*
Y516265*
X284083*
Y461265*
X279442*
X216850Y232263D02*
X226850D01*
X216850Y282263D02*
X226850D01*
X217600Y157263D02*
X226850D01*
X246850Y242263D02*
X241850D01*
Y185263*
X208100*
Y173513*
X199100*
Y157263*
X193850*
X246850Y252263D02*
X251850D01*
Y180263*
X211100*
Y157263*
X203850*
X246850Y262263D02*
X241850D01*
Y311513*
X189100*
Y327263*
X183850*
X259442Y376265D02*
Y364702D01*
X364129*
Y361956*
X434518*
Y386265*
X439442*
X269442Y376265D02*
Y366824D01*
X364004*
Y371441*
X414424*
Y386265*
X419442*
X279442Y376265D02*
Y368765D01*
X361942*
Y381301*
X394442*
Y386265*
X399442*
X289442Y376265D02*
Y371265D01*
X359442*
Y402143*
X379442*
Y386265*
X323156Y268437D02*
Y258437D01*
Y298437D02*
X328156D01*
Y322437*
X358127*
Y328437*
X363127*
X326249Y198437D02*
Y188437D01*
X333156Y268437D02*
Y258437D01*
Y298437D02*
X338156D01*
Y314437*
X368647*
Y321937*
X368627*
Y328437*
X373127*
X336249Y188437D02*
X341249D01*
Y164078*
X441627*
Y158437*
X449127*
X336249Y198437D02*
Y188437D01*
X339442Y416265D02*
X344138D01*
Y391508*
X294217*
Y411387*
X289405*
X339442Y426265D02*
Y431222D01*
X360692*
Y441265*
X384442*
Y466265*
X389442*
X339442Y496265D02*
Y501265D01*
X357389*
Y482267*
X414442*
Y466265*
X419442*
X339442Y506265D02*
Y511346D01*
X359761*
Y506104*
X361508*
Y492251*
X434442*
Y466167*
X439526*
Y466265*
X339442Y516265D02*
Y521205D01*
X359636*
Y516962*
X363505*
Y509474*
X365252*
Y502235*
X429276*
Y497118*
X454442*
Y470909*
X459526*
Y466265*
X339442Y526265D02*
Y531265D01*
X363380*
Y521265*
X369442*
Y516265*
X339442Y536265D02*
Y541265D01*
X369442*
Y536265*
X339442Y546265D02*
Y551265D01*
X369442*
Y556265*
X339442D02*
Y561265D01*
X359442*
Y576265*
X369442*
X343156Y268437D02*
Y258437D01*
Y298437D02*
X348156D01*
Y312437*
X377877*
Y328437*
X383127*
X346249Y198437D02*
Y188437D01*
X349442Y426265D02*
X364503D01*
Y431265*
X394442*
Y466265*
X399442*
X349442Y436265D02*
X358192D01*
Y450691*
X374442*
Y466265*
X379442*
X349442Y496265D02*
X354893D01*
Y480519*
X404442*
Y466265*
X409442*
X349442Y506265D02*
X357514D01*
Y504107*
X359511*
Y490254*
X424442*
Y466265*
X429526*
X349442Y516265D02*
X357764D01*
Y514965*
X361633*
Y507726*
X363380*
Y500238*
X426905*
Y494622*
X444442*
Y466265*
X449526*
X349442Y526265D02*
X361508D01*
Y518765*
X365252*
Y511265*
X369442*
Y506265*
X349442Y536265D02*
X365127D01*
Y531265*
X369442*
Y526265*
X349442Y546265D02*
X369442D01*
X349442Y556265D02*
X363192D01*
Y561265*
X369442*
Y566265*
X353156Y268437D02*
Y258437D01*
Y298437D02*
Y304437D01*
X388241*
Y328437*
X393127*
X356249Y188437D02*
X361249D01*
Y174437*
X454127*
Y158437*
X459127*
X356249Y198437D02*
Y188437D01*
X363156Y268437D02*
Y258437D01*
Y298437D02*
Y302437D01*
X397851*
Y317437*
X397877*
Y328437*
X403127*
X369442Y396265D02*
Y386265D01*
X376249Y188437D02*
X381249D01*
Y182437*
X464127*
Y158437*
X469127*
X379442Y396265D02*
Y386265D01*
X389442Y396265D02*
Y386265D01*
X392127Y288437D02*
X404127D01*
X396249Y188437D02*
X402249D01*
Y184437*
X474127*
X399442Y396265D02*
Y386265D01*
X409442Y396265D02*
Y386265D01*
X413127Y328437D02*
X407877D01*
Y314437*
X407127*
Y303437*
X404127*
Y288437*
X419442Y396265D02*
Y386265D01*
X429127Y328437D02*
X423560D01*
Y298437*
X412127*
X429442Y396265D02*
Y386265D01*
X439127Y328437D02*
X444278D01*
Y312437*
X451127*
Y288437*
X462127*
X439442Y396265D02*
Y386265D01*
X449127Y328437D02*
X454127D01*
Y297437*
X483127*
Y238437*
X492127*
X458354Y208437D02*
X474127D01*
Y184437*
X459127Y328437D02*
X464246D01*
Y300437*
X486627*
Y288437*
X492127*
X469127Y328437D02*
X474230D01*
Y303437*
X532127*
Y288437*
X474127Y184437D02*
Y158437D01*
X492127Y228437D02*
X482127D01*
X522127Y238437D02*
X532127D01*
X522127Y288437D02*
X532127D01*
X542127Y248437D02*
X537127D01*
Y191437*
X494127*
Y158437*
X489127*
X542127Y258437D02*
X547127D01*
Y186437*
X504127*
Y158437*
X499127*
X542127Y268437D02*
X537127D01*
Y317937*
X484090*
Y328437*
X479127*
D02*
D16*
X124442Y511265D02*
X123442D01*
X209442Y376265D02*
Y375865D01*
Y386265D02*
Y385865D01*
X299042Y376665D02*
X299442Y376265D01*
X299042Y386665D02*
X299442Y386265D01*
X339442Y436265D02*
Y441331D01*
X355692*
Y466265*
X369442*
X339442Y506265D02*
X339842D01*
X474127Y158437D02*
X479127D01*
D02*
D19*
X14442Y501265D03*
Y511265D03*
Y521265D03*
Y531265D03*
Y541265D03*
Y551265D03*
X29442Y368387D03*
Y388387D03*
Y448765D03*
X39442D03*
X44442Y461265D03*
Y501265D03*
X54192Y406265D03*
Y416265D03*
X54442Y426265D03*
Y471265D03*
Y511265D03*
X59442Y368387D03*
Y388387D03*
X61942Y451265D03*
X64442Y461265D03*
Y471265D03*
Y481265D03*
X74442Y421265D03*
Y431265D03*
Y451265D03*
Y461265D03*
Y471265D03*
Y481265D03*
Y491265D03*
Y501265D03*
Y511265D03*
Y521265D03*
X84442Y411265D03*
Y421265D03*
Y431265D03*
X94442Y411265D03*
Y421265D03*
Y431265D03*
X104442Y411265D03*
Y421265D03*
Y431265D03*
Y451265D03*
Y461265D03*
Y471265D03*
Y481265D03*
Y491265D03*
Y501265D03*
Y511265D03*
Y521265D03*
X114442Y441265D03*
Y461265D03*
Y471265D03*
Y481265D03*
X124442Y441265D03*
Y471265D03*
Y511265D03*
X124507Y431347D03*
X134442Y461265D03*
Y501265D03*
X134491Y421206D03*
Y431206D03*
Y441206D03*
X144442Y461265D03*
Y501265D03*
X145349Y421206D03*
Y431206D03*
Y441206D03*
X154442Y471265D03*
Y511265D03*
X155315Y441265D03*
X155333Y431347D03*
X161442Y451265D03*
X164442Y461265D03*
Y471265D03*
Y481265D03*
X165315Y441265D03*
X174442Y421265D03*
Y431265D03*
Y451265D03*
Y461265D03*
Y471265D03*
Y481265D03*
Y491265D03*
Y501265D03*
Y511265D03*
Y521265D03*
X184442Y421265D03*
Y431265D03*
X194442Y421265D03*
Y431265D03*
X204442Y421265D03*
Y431265D03*
Y451265D03*
Y461265D03*
Y471265D03*
Y481265D03*
Y491265D03*
Y501265D03*
Y511265D03*
Y521265D03*
X209376Y366206D03*
X214442Y461265D03*
Y471265D03*
Y481265D03*
X216942Y441265D03*
X219360Y366206D03*
X224442Y471265D03*
Y511265D03*
X226942Y441265D03*
X229469Y366206D03*
X234442Y461265D03*
Y501265D03*
X236942Y441265D03*
X239454Y366330D03*
X249442Y421265D03*
Y431265D03*
Y451265D03*
Y461265D03*
Y471265D03*
Y481265D03*
Y491265D03*
Y501265D03*
Y511265D03*
Y521265D03*
X259442Y421265D03*
Y431265D03*
X269442Y421265D03*
Y431265D03*
X279442Y421265D03*
Y431265D03*
Y451265D03*
Y461265D03*
Y471265D03*
Y481265D03*
Y491265D03*
Y501265D03*
Y511265D03*
Y521265D03*
X288149Y231097D03*
Y241097D03*
Y251097D03*
X289405Y411387D03*
X289442Y446265D03*
Y456265D03*
Y466265D03*
Y476265D03*
Y486265D03*
X296089Y145437D03*
Y165437D03*
X299442Y411387D03*
Y436265D03*
Y446265D03*
Y456265D03*
Y466265D03*
Y476265D03*
Y486265D03*
X304373Y231097D03*
Y241097D03*
X304385Y251097D03*
X304442Y506265D03*
Y516265D03*
Y526265D03*
X309442Y411387D03*
Y436265D03*
Y446265D03*
Y456265D03*
Y466265D03*
Y476265D03*
Y486265D03*
X312127Y328437D03*
Y338437D03*
X314442Y506265D03*
Y516265D03*
Y526265D03*
X319442Y411387D03*
Y436265D03*
Y446265D03*
Y456265D03*
Y466265D03*
Y476265D03*
Y486265D03*
X322969Y318437D03*
X323156Y248437D03*
Y258437D03*
Y268437D03*
Y278437D03*
Y288437D03*
Y298437D03*
Y308437D03*
X324442Y506265D03*
Y516265D03*
Y526265D03*
X326089Y145437D03*
Y165437D03*
X326249Y178437D03*
Y188437D03*
Y198437D03*
Y225937D03*
X329442Y446265D03*
Y456265D03*
Y466265D03*
Y476265D03*
Y486265D03*
X331627Y232187D03*
X333078Y318437D03*
X333156Y248437D03*
Y258437D03*
Y268437D03*
Y278437D03*
Y288437D03*
Y298437D03*
Y308437D03*
X336198Y168446D03*
X336249Y178437D03*
Y188437D03*
Y198437D03*
Y225937D03*
X343156Y248437D03*
Y258437D03*
Y268437D03*
Y278437D03*
Y288437D03*
Y298437D03*
Y308437D03*
X343187Y318437D03*
X344442Y386265D03*
X346249Y178437D03*
Y188437D03*
Y198437D03*
Y225937D03*
X351627Y232187D03*
X353046Y318437D03*
X353156Y248437D03*
Y258437D03*
Y268437D03*
Y278437D03*
Y288437D03*
Y298437D03*
Y308437D03*
X356167Y168446D03*
X356249Y178437D03*
Y188437D03*
Y198437D03*
Y225937D03*
X363156Y248437D03*
Y258437D03*
Y268437D03*
Y278437D03*
Y288437D03*
Y298437D03*
Y308437D03*
Y318459D03*
X366249Y178437D03*
Y188437D03*
Y198437D03*
Y225937D03*
X369442Y426265D03*
Y436265D03*
Y446265D03*
Y456265D03*
Y466265D03*
Y476265D03*
Y486265D03*
Y496265D03*
Y506265D03*
Y516265D03*
Y526265D03*
Y536265D03*
Y546265D03*
Y556265D03*
Y566265D03*
Y576265D03*
X371627Y232187D03*
X373140Y318459D03*
X376249Y178437D03*
Y188437D03*
Y198437D03*
Y225937D03*
X376509Y168321D03*
X379442Y366265D03*
Y426265D03*
Y436265D03*
Y446265D03*
Y456265D03*
Y466265D03*
Y476265D03*
Y486265D03*
X382127Y238437D03*
Y278437D03*
X383124Y318459D03*
X386249Y178437D03*
Y188437D03*
Y198437D03*
Y225937D03*
X389442Y426265D03*
Y436265D03*
Y446265D03*
Y456265D03*
Y466265D03*
Y476265D03*
Y486265D03*
X391627Y232187D03*
X392127Y248437D03*
Y288437D03*
X392983Y318459D03*
X396249Y178437D03*
Y188437D03*
Y198437D03*
Y225937D03*
X396478Y168321D03*
X399442Y366265D03*
Y426265D03*
Y436265D03*
Y446265D03*
Y456265D03*
Y466265D03*
Y476265D03*
Y486265D03*
Y496265D03*
Y506265D03*
Y516265D03*
Y526265D03*
Y536265D03*
Y546265D03*
Y556265D03*
Y566265D03*
Y576265D03*
X402127Y238437D03*
Y248437D03*
Y258437D03*
X403093Y308437D03*
X403217Y228352D03*
Y318459D03*
X409442Y426265D03*
Y436265D03*
Y446265D03*
Y456265D03*
Y466265D03*
Y476265D03*
Y486265D03*
Y506265D03*
Y516265D03*
Y526265D03*
Y536265D03*
Y546265D03*
Y556265D03*
Y566265D03*
Y576265D03*
X412127Y178437D03*
Y198437D03*
Y208437D03*
Y228437D03*
Y238437D03*
Y248437D03*
Y258437D03*
Y268437D03*
Y278437D03*
Y288437D03*
Y298437D03*
X413326Y318459D03*
X413451Y308437D03*
X419442Y366265D03*
Y426265D03*
Y436265D03*
Y446265D03*
Y456265D03*
Y466265D03*
Y476265D03*
Y486265D03*
X422127Y198437D03*
Y208437D03*
X429127Y318437D03*
X429442Y426265D03*
Y436265D03*
X429526Y456265D03*
Y466265D03*
Y476265D03*
Y486265D03*
X432127Y198437D03*
Y208437D03*
X434442Y506265D03*
Y516265D03*
Y526265D03*
Y536265D03*
Y546265D03*
Y556265D03*
Y566265D03*
Y576265D03*
X439127Y318437D03*
X439442Y366265D03*
Y426265D03*
Y436265D03*
X439526Y456265D03*
Y466265D03*
Y476265D03*
Y486265D03*
X442127Y198437D03*
Y208437D03*
Y228437D03*
Y238437D03*
Y248437D03*
Y258437D03*
Y268437D03*
Y278437D03*
Y288437D03*
Y298437D03*
X444442Y506265D03*
Y516265D03*
Y526265D03*
Y536265D03*
Y546265D03*
Y556265D03*
Y566265D03*
Y576265D03*
X449127Y168437D03*
Y318437D03*
X449442Y381265D03*
Y391265D03*
Y401265D03*
X449526Y456265D03*
Y466265D03*
Y476265D03*
Y486265D03*
X452127Y238437D03*
Y248437D03*
Y258437D03*
X454442Y506265D03*
Y516265D03*
Y526265D03*
Y536265D03*
Y546265D03*
Y556265D03*
Y566265D03*
Y576265D03*
X458354Y188437D03*
Y198437D03*
Y208437D03*
X459127Y168437D03*
Y318437D03*
X459442Y391265D03*
Y407515D03*
Y417515D03*
Y427515D03*
X459526Y456265D03*
Y466265D03*
Y476265D03*
Y486265D03*
X462127Y248437D03*
Y288437D03*
X469127Y168437D03*
Y318437D03*
X472127Y238437D03*
Y278437D03*
X479127Y168437D03*
Y318437D03*
X482127Y228437D03*
X489127Y168437D03*
X492127Y198437D03*
Y208437D03*
Y228437D03*
Y238437D03*
Y248437D03*
Y258437D03*
Y268437D03*
Y278437D03*
Y288437D03*
Y298437D03*
Y308437D03*
X499127Y168437D03*
X502127Y198437D03*
Y208437D03*
Y308437D03*
X512127Y148437D03*
Y158437D03*
Y168437D03*
Y178437D03*
Y198437D03*
Y208437D03*
Y308437D03*
Y328437D03*
Y338437D03*
X522127Y148437D03*
Y158437D03*
Y168437D03*
Y178437D03*
Y198437D03*
Y208437D03*
Y228437D03*
Y238437D03*
Y248437D03*
Y258437D03*
Y268437D03*
Y278437D03*
Y288437D03*
Y298437D03*
Y308437D03*
Y328437D03*
Y338437D03*
X532127Y148437D03*
Y158437D03*
Y168437D03*
Y178437D03*
Y238437D03*
Y248437D03*
Y258437D03*
Y268437D03*
Y288437D03*
Y328437D03*
Y338437D03*
X542127Y158437D03*
Y168437D03*
Y178437D03*
Y228437D03*
Y238437D03*
Y248437D03*
Y258437D03*
Y268437D03*
Y278437D03*
Y308437D03*
Y318437D03*
Y328437D03*
D02*
D70*
X16850Y222263D03*
Y232263D03*
Y242263D03*
Y252263D03*
Y262263D03*
Y272263D03*
Y282263D03*
Y292263D03*
Y302263D03*
X18850Y145763D03*
Y165763D03*
X26850Y222263D03*
Y232263D03*
Y242263D03*
Y252263D03*
Y262263D03*
Y272263D03*
Y282263D03*
Y292263D03*
Y302263D03*
X36850Y222263D03*
Y232263D03*
Y242263D03*
Y252263D03*
Y262263D03*
Y272263D03*
Y282263D03*
Y292263D03*
Y302263D03*
X46850Y222263D03*
Y232263D03*
Y242263D03*
Y252263D03*
Y262263D03*
Y272263D03*
Y282263D03*
Y292263D03*
Y302263D03*
X48850Y145763D03*
Y165763D03*
X56850Y172263D03*
Y182263D03*
Y192263D03*
Y202263D03*
Y212263D03*
Y222263D03*
Y232263D03*
Y242263D03*
Y252263D03*
Y262263D03*
Y272263D03*
Y282263D03*
Y292263D03*
Y302263D03*
X63353Y546265D03*
X64704Y87363D03*
X66850Y172263D03*
Y182263D03*
Y192263D03*
Y202263D03*
Y212263D03*
Y222263D03*
Y232263D03*
Y242263D03*
Y252263D03*
Y262263D03*
Y272263D03*
Y282263D03*
Y292263D03*
Y302263D03*
X67418Y113696D03*
X67850Y317263D03*
X73462Y546265D03*
X76850Y172263D03*
Y182263D03*
Y192263D03*
Y202263D03*
Y212263D03*
Y222263D03*
Y232263D03*
Y242263D03*
Y252263D03*
Y262263D03*
Y272263D03*
Y282263D03*
Y292263D03*
Y302263D03*
X77418Y113696D03*
X77850Y317263D03*
X80429Y28206D03*
Y87363D03*
X83446Y546265D03*
X86850Y172263D03*
Y192263D03*
Y202263D03*
Y212263D03*
Y242263D03*
Y252263D03*
X87418Y113696D03*
X87850Y317263D03*
X88417Y28206D03*
Y87363D03*
X89442Y396265D03*
X93306Y546265D03*
X96279Y28206D03*
Y87363D03*
X96850Y172263D03*
Y182263D03*
Y192263D03*
Y202263D03*
Y212263D03*
Y242263D03*
Y252263D03*
Y262263D03*
Y272263D03*
Y282263D03*
Y292263D03*
X97418Y113696D03*
X97850Y317263D03*
X99442Y396265D03*
X103415Y546265D03*
X104267Y28206D03*
Y87363D03*
X106850Y172263D03*
Y192263D03*
Y202263D03*
Y212263D03*
Y242263D03*
Y252263D03*
Y262263D03*
Y272263D03*
Y282263D03*
Y292263D03*
X107418Y113696D03*
X107850Y317263D03*
X109442Y396265D03*
X112129Y28206D03*
Y87363D03*
X113399Y546265D03*
X116850Y172263D03*
Y182263D03*
Y192263D03*
Y202263D03*
Y212263D03*
Y242263D03*
Y252263D03*
X117418Y113696D03*
X117850Y317263D03*
X119442Y396265D03*
X123383Y546265D03*
X126850Y172263D03*
Y192263D03*
Y202263D03*
Y212263D03*
Y242263D03*
Y252263D03*
X133368Y546265D03*
X133850Y317263D03*
X136850Y172263D03*
Y182263D03*
Y192263D03*
Y202263D03*
Y212263D03*
Y242263D03*
Y252263D03*
X143850Y317263D03*
X146850Y192263D03*
Y202263D03*
Y212263D03*
Y242263D03*
Y252263D03*
X149442Y396265D03*
Y546265D03*
X153850Y317263D03*
X153865Y167513D03*
X156850Y182263D03*
Y192263D03*
Y202263D03*
Y212263D03*
Y242263D03*
Y252263D03*
X159442Y546265D03*
X163850Y317263D03*
X163865Y167513D03*
X166850Y302263D03*
X169442Y396265D03*
Y406265D03*
Y546265D03*
X173850Y317263D03*
X173865Y167513D03*
X176850Y182263D03*
Y302263D03*
X179442Y396265D03*
Y406265D03*
Y546265D03*
X183850Y317263D03*
X183865Y167513D03*
X186850Y192263D03*
Y202263D03*
Y222263D03*
Y232263D03*
Y242263D03*
Y252263D03*
Y262263D03*
Y272263D03*
Y282263D03*
Y292263D03*
X189442Y396265D03*
Y406265D03*
Y546265D03*
X193850Y317263D03*
X193865Y167513D03*
X196850Y192263D03*
Y202263D03*
Y302263D03*
X199442Y396265D03*
Y406265D03*
Y546265D03*
X203850Y317263D03*
X203865Y167513D03*
X206850Y192263D03*
Y202263D03*
Y302263D03*
X209442Y396265D03*
Y406265D03*
Y546265D03*
X216850Y167513D03*
Y192263D03*
Y202263D03*
Y222263D03*
Y232263D03*
Y242263D03*
Y252263D03*
Y262263D03*
Y272263D03*
Y282263D03*
Y292263D03*
Y302263D03*
Y327263D03*
Y337263D03*
X219442Y396265D03*
Y406265D03*
Y546265D03*
X226850Y147263D03*
Y157263D03*
Y167513D03*
Y232263D03*
Y282263D03*
Y302263D03*
Y327263D03*
Y337263D03*
X229442Y396265D03*
Y406265D03*
X236850Y147263D03*
Y157263D03*
Y167513D03*
Y242263D03*
Y252263D03*
Y262263D03*
Y327263D03*
Y337263D03*
X237905Y521265D03*
X239442Y396265D03*
Y406265D03*
Y546265D03*
X246850Y157263D03*
Y167513D03*
Y222263D03*
Y232263D03*
Y242263D03*
Y252263D03*
Y262263D03*
Y272263D03*
Y302263D03*
Y312263D03*
Y327263D03*
X249442Y546265D03*
X256006Y113513D03*
X259442Y396265D03*
Y406265D03*
Y546265D03*
X266006Y113513D03*
X269442Y396265D03*
Y406265D03*
Y546265D03*
X276006Y113513D03*
X279442Y396265D03*
Y406265D03*
Y546265D03*
X286006Y113513D03*
X289442Y396265D03*
Y546265D03*
X296006Y113513D03*
X299442Y396265D03*
Y546265D03*
X306006Y113513D03*
X309442Y396265D03*
Y546265D03*
X324442D03*
Y556265D03*
Y566265D03*
X369442Y376265D03*
Y386265D03*
Y396265D03*
X379442Y376265D03*
Y386265D03*
Y396265D03*
X389442Y376265D03*
Y386265D03*
Y396265D03*
X399442Y376265D03*
Y386265D03*
Y396265D03*
X409442Y376265D03*
Y386265D03*
Y396265D03*
X419442Y376265D03*
Y386265D03*
Y396265D03*
X429442Y376265D03*
Y386265D03*
Y396265D03*
X429526Y446265D03*
X439442Y376265D03*
Y386265D03*
Y396265D03*
X439526Y446265D03*
X443628Y85116D03*
X447300Y113571D03*
X449526Y446265D03*
X457300Y113571D03*
X459353Y25959D03*
Y85116D03*
X459526Y446265D03*
X467300Y113571D03*
X467341Y25959D03*
Y85116D03*
X475203Y25959D03*
Y85116D03*
X477300Y113571D03*
X483191Y25959D03*
Y85116D03*
X487300Y113571D03*
X491053Y25959D03*
Y85116D03*
X497300Y113571D03*
D02*
D71*
X110692Y426265D03*
X284383Y528325D03*
Y536437D03*
X294405Y536387D03*
X294467Y528387D03*
X424658Y401265D03*
D02*
D20*
X43442Y556265D03*
Y566265D03*
X53442Y556265D03*
Y566265D03*
X63442Y556265D03*
Y566265D03*
X73442Y556265D03*
Y566265D03*
X79442Y376265D03*
Y386265D03*
X83442Y556265D03*
Y566265D03*
X89442Y376265D03*
Y386265D03*
X93442Y556265D03*
Y566265D03*
X99442Y376265D03*
Y386265D03*
X103442Y556265D03*
Y566265D03*
X109442Y376265D03*
Y386265D03*
X113442Y556265D03*
Y566265D03*
X119442Y376265D03*
Y386265D03*
X123442Y556265D03*
Y566265D03*
X129442Y376265D03*
Y386265D03*
X133442Y556265D03*
Y566265D03*
X139442Y376265D03*
Y386265D03*
X149442Y376265D03*
Y386265D03*
Y556265D03*
Y566265D03*
X159442Y556265D03*
Y566265D03*
X169442Y376265D03*
Y386265D03*
Y556265D03*
Y566265D03*
X179442Y376265D03*
Y386265D03*
Y556265D03*
Y566265D03*
X189442Y376265D03*
Y386265D03*
Y556265D03*
Y566265D03*
X199442Y376265D03*
Y386265D03*
Y556265D03*
Y566265D03*
X209442Y376265D03*
Y386265D03*
Y556265D03*
Y566265D03*
X219442Y376265D03*
Y386265D03*
Y556265D03*
Y566265D03*
X229442Y376265D03*
Y386265D03*
X239442Y376265D03*
Y386265D03*
Y556265D03*
Y566265D03*
X249442Y556265D03*
Y566265D03*
X259442Y376265D03*
Y386265D03*
Y556265D03*
Y566265D03*
X269442Y376265D03*
Y386265D03*
Y556265D03*
Y566265D03*
X279442Y376265D03*
Y386265D03*
Y556265D03*
Y566265D03*
X289442Y376265D03*
Y386265D03*
Y556265D03*
Y566265D03*
X299442Y376265D03*
Y386265D03*
Y556265D03*
Y566265D03*
X309442Y376265D03*
Y386265D03*
Y556265D03*
Y566265D03*
X319442Y376265D03*
Y386265D03*
X329442Y376265D03*
Y386265D03*
D02*
D21*
X339442Y396265D03*
Y406265D03*
Y416265D03*
Y426265D03*
Y436265D03*
Y446265D03*
Y456265D03*
Y466265D03*
Y476265D03*
Y486265D03*
Y496265D03*
Y506265D03*
Y516265D03*
Y526265D03*
Y536265D03*
Y546265D03*
Y556265D03*
Y566265D03*
X349442Y396265D03*
Y406265D03*
Y416265D03*
Y426265D03*
Y436265D03*
Y446265D03*
Y456265D03*
Y466265D03*
Y476265D03*
Y486265D03*
Y496265D03*
Y506265D03*
Y516265D03*
Y526265D03*
Y536265D03*
Y546265D03*
Y556265D03*
Y566265D03*
D02*
D22*
X153850Y147263D03*
Y157263D03*
X163850Y147263D03*
Y157263D03*
X173850Y147263D03*
Y157263D03*
X183850Y147263D03*
Y157263D03*
X193850Y147263D03*
Y157263D03*
X203850Y147263D03*
Y157263D03*
X449127Y148437D03*
Y158437D03*
X459127Y148437D03*
Y158437D03*
X469127Y148437D03*
Y158437D03*
X479127Y148437D03*
Y158437D03*
X489127Y148437D03*
Y158437D03*
X499127Y148437D03*
Y158437D03*
D02*
D23*
X27850Y327263D03*
Y337263D03*
X37850Y327263D03*
Y337263D03*
X47850Y327263D03*
Y337263D03*
X57850Y327263D03*
Y337263D03*
X63850Y147263D03*
Y157263D03*
X67850Y327263D03*
Y337263D03*
X73850Y147263D03*
Y157263D03*
X77850Y327263D03*
Y337263D03*
X83850Y147263D03*
Y157263D03*
X87850Y327263D03*
Y337263D03*
X93850Y147263D03*
Y157263D03*
X97850Y327263D03*
Y337263D03*
X103850Y147263D03*
Y157263D03*
X107850Y327263D03*
Y337263D03*
X113850Y147263D03*
Y157263D03*
X117850Y327263D03*
Y337263D03*
X123850Y147263D03*
Y157263D03*
X133850Y147263D03*
Y157263D03*
Y327263D03*
Y337263D03*
X143850Y327263D03*
Y337263D03*
X153850Y327263D03*
Y337263D03*
X163850Y327263D03*
Y337263D03*
X173850Y327263D03*
Y337263D03*
X183850Y327263D03*
Y337263D03*
X193850Y327263D03*
Y337263D03*
X203850Y327263D03*
Y337263D03*
X323127Y328437D03*
Y338437D03*
X333127Y328437D03*
Y338437D03*
X343127Y328437D03*
Y338437D03*
X353127Y328437D03*
Y338437D03*
X359127Y148437D03*
Y158437D03*
X363127Y328437D03*
Y338437D03*
X369127Y148437D03*
Y158437D03*
X373127Y328437D03*
Y338437D03*
X379127Y148437D03*
Y158437D03*
X383127Y328437D03*
Y338437D03*
X389127Y148437D03*
Y158437D03*
X393127Y328437D03*
Y338437D03*
X399127Y148437D03*
Y158437D03*
X403127Y328437D03*
Y338437D03*
X409127Y148437D03*
Y158437D03*
X413127Y328437D03*
Y338437D03*
X419127Y148437D03*
Y158437D03*
X429127Y148437D03*
Y158437D03*
Y328437D03*
Y338437D03*
X439127Y328437D03*
Y338437D03*
X449127Y328437D03*
Y338437D03*
X459127Y328437D03*
Y338437D03*
X469127Y328437D03*
Y338437D03*
X479127Y328437D03*
Y338437D03*
X489127Y328437D03*
Y338437D03*
X499127Y328437D03*
Y338437D03*
D02*
D24*
X14442Y501265D02*
Y363887D01*
X109442*
Y376265*
X16850Y202263D02*
X26850D01*
Y182263*
X16850Y202263D02*
Y222263D01*
Y232263D02*
Y222263D01*
Y232263D02*
X26850D01*
X16850Y262263D02*
X26850D01*
X16850Y272263D02*
X26850D01*
X19442Y426265D02*
X29442D01*
X26850Y232263D02*
X36850D01*
X26850Y262263D02*
X36850D01*
X26850Y272263D02*
X36850D01*
X29442Y416265D02*
Y405387D01*
Y426265D02*
Y416265D01*
Y448765D02*
Y426265D01*
X36850Y232263D02*
X46850D01*
X36850Y272263D02*
X46850D01*
X39442Y426265D02*
X54442D01*
X44442Y461265D02*
X64442D01*
X46850Y232263D02*
X51850D01*
X46850Y262263D02*
X56850D01*
X46850Y272263D02*
X56850D01*
X46942Y416265D02*
X29442D01*
X46942D02*
Y396265D01*
X59442*
X48850Y165763D02*
X26850D01*
Y182263*
X51850Y232263D02*
X56850D01*
X54192Y416265D02*
X46942D01*
X54442Y471265D02*
X64442D01*
X54442Y511265D02*
X68192D01*
X56850Y172263D02*
X51850D01*
X56850Y182263D02*
X66850D01*
X56850Y232263D02*
X66850D01*
X56850Y262263D02*
X66850D01*
X56850Y272263D02*
X66850D01*
X59442Y396265D02*
Y388387D01*
X61942Y451265D02*
X74442D01*
X64442Y461265D02*
X74442D01*
X64442Y481265D02*
X74442D01*
X66850Y172263D02*
X56850D01*
X66850D02*
X76850D01*
X66850Y192263D02*
X56850D01*
X66850Y232263D02*
X76850D01*
X66850Y262263D02*
X76850D01*
X66850Y272263D02*
X76850D01*
X68192Y511265D02*
X74442D01*
Y421265D02*
X84442D01*
X74442Y471265D02*
X79442D01*
Y431265*
X74442*
Y481265D02*
Y491265D01*
X89442*
X76850Y192263D02*
X66850D01*
X76850Y232263D02*
X81850D01*
Y252263*
X77418Y113696D02*
Y103213D01*
X64704*
Y87363*
X80429Y28206D02*
Y37773D01*
X73690*
Y73513*
X81850Y252263D02*
Y272263D01*
Y252263D02*
X86850D01*
X84442Y411265D02*
X61942D01*
Y440015*
X39442*
Y448765*
X84442Y421265D02*
X94442D01*
X84442D02*
X89442D01*
Y422367*
X86850Y192263D02*
X76850D01*
X86850D02*
Y172263D01*
Y192263D02*
X96850D01*
X86850Y252263D02*
X96850D01*
X87418Y113696D02*
Y98220D01*
X73690*
Y73513*
X89442Y396265D02*
Y422367D01*
Y396265D02*
X59442D01*
X89442Y422367D02*
Y491265D01*
X104442*
X93850Y147263D02*
Y139763D01*
X217600*
Y157263*
X94442Y411265D02*
Y416265D01*
X110692*
Y426265*
X94442Y421265D02*
X104442D01*
X96850Y182263D02*
X101850D01*
Y161263*
X96850Y242263D02*
X86850D01*
X96850Y252263D02*
X106850D01*
X97418Y113696D02*
Y94726D01*
X88417*
Y87363*
X99442Y376265D02*
Y368765D01*
X59442*
Y368387*
X104267Y87363D02*
Y73513D01*
X73690*
X104442Y461265D02*
X114442D01*
X104442Y471265D02*
X99442D01*
Y431265*
X104442*
Y481265D02*
Y491265D01*
Y481265D02*
X114442D01*
X106850Y242263D02*
X96850D01*
X106850Y252263D02*
X116850D01*
Y242263D02*
X106850D01*
X116850Y252263D02*
X126850D01*
X117418Y113696D02*
Y101013D01*
X122317*
Y39763*
X88417*
Y28206*
X119442Y386265D02*
X114442D01*
Y411265*
X104442*
X119442Y386265D02*
X124442D01*
Y413625*
X134491*
Y421206*
X123442Y511265D02*
X104442D01*
X124442Y441265D02*
X134491D01*
Y441206*
X124442Y471265D02*
X114442D01*
X124507Y431347D02*
X134491D01*
Y431206*
X126850Y242263D02*
X116850D01*
X126850Y252263D02*
X136850D01*
X134442Y461265D02*
X114442D01*
X134491Y431206D02*
Y426105D01*
X119442*
Y396265*
X136850Y242263D02*
X126850D01*
X136850Y252263D02*
X146850D01*
X144442Y461265D02*
X164442D01*
X145349Y431206D02*
X155333D01*
Y431347*
X145349Y431206D02*
Y426265D01*
X174442*
Y421265*
X145349Y441206D02*
Y441265D01*
X155315*
X146850Y242263D02*
X136850D01*
X146850Y252263D02*
X156850D01*
X154442Y471265D02*
X164442D01*
X154442Y511265D02*
X174442D01*
X156850Y242263D02*
X146850D01*
X161442Y451265D02*
X109442D01*
Y426265*
X110692*
X161442Y451265D02*
X174442D01*
X164442Y461265D02*
X174442D01*
X164442Y481265D02*
X174442D01*
X169442Y396265D02*
X179442D01*
X174442Y421265D02*
X184442D01*
X174442Y471265D02*
X179442D01*
Y431265*
X174442*
Y481265D02*
Y491265D01*
X189442*
X176850Y182263D02*
X181850D01*
Y222263*
X186850*
X179442Y396265D02*
X189442D01*
X184442Y421265D02*
X189442D01*
Y491265*
X184442Y421265D02*
X194442D01*
X186850Y192263D02*
X196850D01*
X186850Y242263D02*
X191850D01*
Y202263*
X186850*
Y252263D02*
Y262263D01*
X201850*
X189442Y396265D02*
X199442D01*
X189442Y491265D02*
X204442D01*
X194442Y421265D02*
X204442D01*
X196850Y192263D02*
X206850D01*
X199442Y396265D02*
X204384D01*
X201850Y262263D02*
Y192263D01*
X196850*
X201850Y262263D02*
X216850D01*
X204384Y396265D02*
X209442D01*
X204442Y421265D02*
X214442D01*
Y396265*
X204442Y461265D02*
X214442D01*
X204442Y471265D02*
X199442D01*
Y431265*
X204442*
Y481265D02*
Y491265D01*
Y481265D02*
X214442D01*
X206850Y192263D02*
X216850D01*
X209376Y366206D02*
X204384D01*
Y396265*
X209442D02*
X214442D01*
X219442*
X216850Y242263D02*
X211850D01*
Y202263*
X216850*
Y262263D02*
Y252263D01*
X216942Y441265D02*
X221981D01*
Y412008*
X244695*
Y370823*
X229469*
Y366206*
X217600Y157263D02*
Y152513D01*
X254850*
Y272263*
X246850*
X219442Y396265D02*
X229442D01*
X224442Y471265D02*
X214442D01*
X224442Y511265D02*
X204442D01*
X226942Y441265D02*
Y451265D01*
X249442*
X229442Y396265D02*
X239442D01*
X234442Y461265D02*
X214442D01*
X236850Y242263D02*
Y252263D01*
Y262263*
X237905Y521265D02*
X249442D01*
X239442Y546265D02*
X249442D01*
Y421265D02*
X259442D01*
X249442Y471265D02*
X254442D01*
Y431265*
X249442*
Y481265D02*
Y491265D01*
X264442*
X249442Y546265D02*
X259442D01*
Y396265D02*
X269442D01*
X259442Y421265D02*
X264442D01*
Y491265*
X259442Y421265D02*
X264442D01*
X259442Y546265D02*
X269442D01*
X264442Y421265D02*
X269442D01*
X264442Y491265D02*
X279442D01*
X266006Y113513D02*
Y103513D01*
X253656*
Y85783*
X269404Y26728D02*
Y36419D01*
X263506*
Y73513*
X269442Y396265D02*
X279442D01*
X269442Y421265D02*
X279442D01*
X269442Y546265D02*
X279442D01*
X276006Y113513D02*
Y99763D01*
X263506*
Y73513*
X279442Y471265D02*
X274442D01*
Y431265*
X279442*
Y491265D02*
Y481265D01*
Y521265D02*
Y541265D01*
X324442*
Y546265*
X279442D02*
X289442D01*
X284383Y536437D02*
Y528325D01*
X286006Y113513D02*
Y93513D01*
X277278*
Y85783*
X288149Y251097D02*
X304385D01*
X289442Y396265D02*
X264442D01*
Y421265*
X289442Y446265D02*
Y441265D01*
X309442*
X289442Y456265D02*
Y446265D01*
Y466265D02*
Y456265D01*
Y476265D02*
Y466265D01*
Y486265D02*
Y476265D01*
Y546265D02*
X299442D01*
X293026Y85783D02*
Y73513D01*
X263506*
X294405Y536387D02*
Y528387D01*
X294467*
X296006Y113513D02*
Y101013D01*
X308506*
Y39763*
X277278*
Y26728*
X299442Y396265D02*
X309442D01*
X299442Y456265D02*
Y446265D01*
Y466265D02*
Y456265D01*
Y476265D02*
Y466265D01*
Y486265D02*
Y476265D01*
Y546265D02*
X309442D01*
X304373Y241097D02*
Y236176D01*
X331627*
Y232187*
X309442Y396265D02*
X329561D01*
X309442Y411387D02*
Y396265D01*
Y436265D02*
Y441265D01*
X319442*
Y446265*
Y436265D02*
Y431353D01*
X289500*
Y438092*
X279442*
Y451265*
X319442Y456265D02*
Y446265D01*
Y466265D02*
Y456265D01*
Y476265D02*
Y466265D01*
Y486265D02*
Y476265D01*
X323156Y248437D02*
X333156D01*
X323156Y288437D02*
X317852D01*
Y318437*
X322969*
X323156Y288437D02*
X318156D01*
Y248437*
X323156*
X326249Y178437D02*
Y165437D01*
X326089*
X329442Y446265D02*
Y456265D01*
Y466265*
Y476265*
Y486265*
Y492515*
X299442*
Y486265*
X329561Y396265D02*
X329442D01*
Y446265*
X331627Y232187D02*
X351627D01*
X333156Y248437D02*
X343156D01*
X333156Y288437D02*
X323156D01*
X339442Y396265D02*
X329561D01*
X343156Y248437D02*
X353156D01*
X343156Y288437D02*
X333156D01*
X344442Y386265D02*
X356942D01*
Y406265*
X449442*
X351627Y232187D02*
X371627D01*
X353156Y248437D02*
X363156D01*
X353156Y288437D02*
X343156D01*
X363156D02*
X353156D01*
X371627Y232187D02*
X391627D01*
X382127Y238437D02*
X402127D01*
X389127Y148437D02*
Y140437D01*
X506627*
Y172937*
X549627*
Y278437*
X542127*
X392127Y248437D02*
X402127D01*
X399442Y506265D02*
X409442D01*
X399442Y516265D02*
X409442D01*
X399442Y526265D02*
X409442D01*
X399442Y536265D02*
X409442D01*
X399442Y546265D02*
X409442D01*
X399442Y556265D02*
X409442D01*
X399442Y566265D02*
X409442D01*
X399442Y576265D02*
X409442D01*
X402127Y238437D02*
X412127D01*
X402127Y258437D02*
X412127D01*
X403217Y228352D02*
X412127D01*
Y228437*
X404127Y288437D02*
X412127D01*
X409442Y506265D02*
Y511265D01*
X444442*
Y506265*
X409442Y516265D02*
Y521265D01*
X444442*
Y516265*
X409442Y526265D02*
Y531265D01*
X444442*
Y526265*
X409442Y536265D02*
Y541265D01*
X444442*
Y536265*
X409442Y546265D02*
Y551265D01*
X444442*
Y546265*
X409442Y556265D02*
Y561265D01*
X444442*
Y556265*
X409442Y566265D02*
Y571265D01*
X444442*
Y566265*
X409442Y576265D02*
Y581265D01*
X444442*
Y576265*
X412127Y198437D02*
X422127D01*
X412127Y248437D02*
X417127D01*
Y208437*
X412127*
Y258437D02*
Y268437D01*
X427127*
X422127Y198437D02*
X432127D01*
X424658Y401265D02*
X444442D01*
Y391265*
X449442*
X424658Y401265D02*
Y366265D01*
X419442*
X427127Y268437D02*
X442127D01*
X427127D02*
Y203437D01*
X422127*
Y198437*
X432127D02*
X442127D01*
Y238437D02*
X452127D01*
X442127Y248437D02*
X437127D01*
Y208437*
X442127*
Y258437D02*
Y268437D01*
Y258437D02*
X452127D01*
X449442Y401265D02*
Y406265D01*
X454442*
Y427515*
X459442*
X452300Y73509D02*
Y25959D01*
X459353*
X457300Y113571D02*
Y103961D01*
X443628*
Y85116*
X459127Y168437D02*
Y178437D01*
X412127*
X459442Y417515D02*
X464442D01*
Y446265*
X459526Y476265D02*
X464442D01*
Y446265*
X462127Y248437D02*
X452127D01*
X462127Y288437D02*
X442127D01*
X464442Y446265D02*
X459526D01*
X467300Y113571D02*
Y99718D01*
X452300*
Y73509*
X472127Y238437D02*
X452127D01*
X477300Y113571D02*
Y93977D01*
X467341*
Y85116*
X483191D02*
Y73509D01*
X452300*
X487300Y113571D02*
Y103513D01*
X497300*
Y38513*
X467341*
Y25959*
X492127Y198437D02*
X502127D01*
X492127Y248437D02*
X497127D01*
Y208437*
X492127*
Y258437D02*
Y268437D01*
X507127*
X502127Y198437D02*
Y203437D01*
X507127*
Y268437*
X502127Y198437D02*
X512127D01*
X507127Y268437D02*
X522127D01*
X512127Y198437D02*
X522127D01*
Y248437D02*
X517127D01*
Y208437*
X522127*
Y268437D02*
Y258437D01*
X532127Y248437D02*
Y258437D01*
Y268437*
D02*
D77*
X16850Y202263D03*
X19442Y426265D03*
X26850Y182263D03*
X29442Y405387D03*
X36850Y202263D03*
X39442Y426265D03*
X294127Y198437D03*
X304127Y178437D03*
X314127Y198437D03*
D02*
D78*
X253656Y85783D03*
X269404D03*
X277278Y26728D03*
Y85783D03*
X285152Y26728D03*
Y85783D03*
X293026Y26728D03*
Y85783D03*
X300900Y26728D03*
Y85783D03*
D02*
D79*
X269404Y26728D03*
D02*
D80*
X32406Y27773D03*
Y37773D03*
Y47773D03*
Y57773D03*
Y67773D03*
Y77773D03*
X221006Y26419D03*
Y36419D03*
Y46419D03*
Y56419D03*
Y66419D03*
Y76419D03*
D02*
D81*
X152466Y37733D03*
Y47733D03*
Y57733D03*
Y67733D03*
Y77733D03*
X341067Y36380D03*
Y46380D03*
Y56380D03*
Y66380D03*
Y76380D03*
X0Y0D02*
M02*
